<svg xmlns="http://www.w3.org/2000/svg" width="180" height="44" viewBox="0 0 140.114 34.583"><defs><clipPath id="clip-path" transform="translate(0 -.002)"><path d="M0 0h140.114v34.583H0z" class="cls-1"/></clipPath><clipPath id="clip-path-2" transform="translate(0 -.002)"><path d="m0 .002.004 28.726a38.387 38.387 0 0 0 19.521-1.674 38.839 38.839 0 0 0 15.055-9.765 38.834 38.834 0 0 1-9.813 12.387c-.024.021-.051.039-.076.061h9.892V.002Z" class="cls-1"/></clipPath><linearGradient id="linear-gradient" x2="1" y1="34.583" y2="34.583" gradientTransform="matrix(0 -29.7337 -29.7337 0 1045.572 29.734)" gradientUnits="userSpaceOnUse"><stop offset="0" stop-color="#18224e"/><stop offset=".004" stop-color="#18224e"/><stop offset="1" stop-color="#224899"/></linearGradient><style>.cls-1{fill:none}.cls-2{clip-path:url(#clip-path)}.cls-3,.cls-4,.cls-7{fill:#fff}</style></defs><g id="Layer_2" data-name="Layer 2"><g id="Layer_1-2" data-name="Layer 1"><g class="cls-2"><path d="M44.408 14.448V1.264h4.816a5.498 5.498 0 0 1 3.291.858 2.89 2.89 0 0 1 1.174 2.491 3.1 3.1 0 0 1-.492 1.775 3.15 3.15 0 0 1-1.407 1.125 3.616 3.616 0 0 1 1.785 1.227 3.333 3.333 0 0 1 .624 2.061 3.164 3.164 0 0 1-1.266 2.711 5.852 5.852 0 0 1-3.542.936Zm4.71-10.81h-2.021v2.9h2.021a2.186 2.186 0 0 0 1.363-.373 1.281 1.281 0 0 0 .483-1.077 1.278 1.278 0 0 0-.483-1.076 2.18 2.18 0 0 0-1.363-.375m-2.021 8.438h2.197a2.569 2.569 0 0 0 1.609-.443 1.524 1.524 0 0 0 .571-1.28 1.497 1.497 0 0 0-.571-1.269 2.607 2.607 0 0 0-1.609-.436h-2.197ZM55.392 5.668h2.54v4.711a2.446 2.446 0 0 0 .413 1.52 1.409 1.409 0 0 0 1.187.537 1.707 1.707 0 0 0 1.34-.58 2.152 2.152 0 0 0 .514-1.486h.01V5.66h2.53v8.788h-2.215l-.105-1.08a3.614 3.614 0 0 1-1.239.927 3.756 3.756 0 0 1-1.582.33 3.044 3.044 0 0 1-2.532-1.082 5.025 5.025 0 0 1-.86-3.182ZM65.199 13.332l1.195-1.907a10.796 10.796 0 0 0 1.393.796 2.772 2.772 0 0 0 1.139.294 1.028 1.028 0 0 0 .624-.176.536.536 0 0 0 .237-.448.729.729 0 0 0-.444-.642 9.638 9.638 0 0 0-1.024-.483q-.615-.255-1.235-.576a3.241 3.241 0 0 1-1.037-.83 2.013 2.013 0 0 1-.417-1.319 2.268 2.268 0 0 1 .883-1.837 3.86 3.86 0 0 1 2.5-.72 7.55 7.55 0 0 1 1.666.198 5.245 5.245 0 0 1 1.595.636l-1.116 1.925a4.118 4.118 0 0 0-1.006-.452 3.565 3.565 0 0 0-1.051-.198 1.683 1.683 0 0 0-.54.101.388.388 0 0 0-.295.391.62.62 0 0 0 .409.536 10.439 10.439 0 0 0 .97.431q.608.237 1.249.558a3.34 3.34 0 0 1 1.086.853 2.098 2.098 0 0 1 .444 1.392 2.386 2.386 0 0 1-.475 1.486 3 3 0 0 1-1.266.954 4.497 4.497 0 0 1-1.75.33 6.041 6.041 0 0 1-1.875-.317 6.488 6.488 0 0 1-1.86-.976M73.774 2.671a1.375 1.375 0 0 1 .387-1.019 1.536 1.536 0 0 1 2.039 0 1.378 1.378 0 0 1 .386 1.019 1.382 1.382 0 0 1-.386 1.02 1.54 1.54 0 0 1-2.039 0 1.379 1.379 0 0 1-.387-1.02m.14 2.988h2.531v8.789h-2.531ZM78.533 14.448V5.66h2.215l.105 1.072a3.566 3.566 0 0 1 1.244-.923 3.864 3.864 0 0 1 1.595-.325A3.135 3.135 0 0 1 86.144 6.5a4.068 4.068 0 0 1 .914 2.825v5.124h-2.54V9.816q0-2.136-1.6-2.136a1.676 1.676 0 0 0-1.34.607 2.564 2.564 0 0 0-.514 1.705v4.456ZM90.877 10.81a2.303 2.303 0 0 0 .874 1.186 2.496 2.496 0 0 0 1.49.457 3.445 3.445 0 0 0 1.516-.294 4.362 4.362 0 0 0 1.095-.76l1.53 1.827a6.185 6.185 0 0 1-2.018 1.1 6.67 6.67 0 0 1-1.912.298 5.411 5.411 0 0 1-2.575-.593 4.4 4.4 0 0 1-2.382-4.004 4.493 4.493 0 0 1 .606-2.333 4.412 4.412 0 0 1 1.657-1.617 4.763 4.763 0 0 1 2.387-.594 4.676 4.676 0 0 1 2.36.59 4.357 4.357 0 0 1 1.63 1.616 4.608 4.608 0 0 1 .599 2.356v.764Zm4.254-1.407a2.248 2.248 0 0 0-.756-1.248 2.079 2.079 0 0 0-1.371-.475 2.147 2.147 0 0 0-1.402.484 2.237 2.237 0 0 0-.778 1.24ZM98.656 13.332l1.195-1.907a10.73 10.73 0 0 0 1.393.796 2.772 2.772 0 0 0 1.14.294 1.028 1.028 0 0 0 .623-.176.536.536 0 0 0 .237-.448.731.731 0 0 0-.443-.642 9.754 9.754 0 0 0-1.025-.483q-.615-.255-1.235-.576a3.252 3.252 0 0 1-1.037-.83 2.007 2.007 0 0 1-.417-1.319 2.268 2.268 0 0 1 .883-1.837 3.858 3.858 0 0 1 2.5-.72 7.557 7.557 0 0 1 1.666.198 5.255 5.255 0 0 1 1.595.636l-1.116 1.925a4.135 4.135 0 0 0-1.006-.452 3.57 3.57 0 0 0-1.05-.198 1.693 1.693 0 0 0-.542.101.387.387 0 0 0-.294.391.618.618 0 0 0 .41.536 10.179 10.179 0 0 0 .97.431q.608.237 1.248.558a3.35 3.35 0 0 1 1.086.853 2.103 2.103 0 0 1 .444 1.392 2.386 2.386 0 0 1-.475 1.486 3 3 0 0 1-1.266.954 4.497 4.497 0 0 1-1.749.33 6.041 6.041 0 0 1-1.876-.317 6.488 6.488 0 0 1-1.859-.976M106.85 13.332l1.195-1.907a10.73 10.73 0 0 0 1.392.796 2.772 2.772 0 0 0 1.14.294 1.028 1.028 0 0 0 .623-.176.536.536 0 0 0 .237-.448.731.731 0 0 0-.443-.642 9.754 9.754 0 0 0-1.025-.483q-.615-.255-1.235-.576a3.252 3.252 0 0 1-1.037-.83 2.007 2.007 0 0 1-.417-1.319 2.268 2.268 0 0 1 .883-1.837 3.858 3.858 0 0 1 2.5-.72 7.557 7.557 0 0 1 1.666.198 5.255 5.255 0 0 1 1.595.636l-1.116 1.925a4.135 4.135 0 0 0-1.006-.452 3.57 3.57 0 0 0-1.05-.198 1.693 1.693 0 0 0-.542.101.387.387 0 0 0-.294.391.618.618 0 0 0 .41.536 10.179 10.179 0 0 0 .97.431q.608.237 1.248.558a3.35 3.35 0 0 1 1.086.853 2.103 2.103 0 0 1 .444 1.392 2.386 2.386 0 0 1-.475 1.486 3 3 0 0 1-1.266.954 4.497 4.497 0 0 1-1.749.33 6.041 6.041 0 0 1-1.876-.317 6.488 6.488 0 0 1-1.859-.976" class="cls-3"/><path d="M44.409 22.335v-2.373h10.23v2.373h-3.77v10.811H48.18V22.335h-3.771zM54.4 33.146v-8.79h2.214l.123 1.258a3.01 3.01 0 0 1 2.637-1.433 4.227 4.227 0 0 1 1.177.176l-.35 2.188a3.218 3.218 0 0 0-1.003-.167 2.03 2.03 0 0 0-1.644.752 3.262 3.262 0 0 0-.624 2.14v3.876ZM61.162 30.729a2.605 2.605 0 0 1 .505-1.573 3.445 3.445 0 0 1 1.393-1.1 4.859 4.859 0 0 1 2.03-.403 7.056 7.056 0 0 1 .76.044q.4.043.805.114-.29-1.433-2.083-1.433a3.569 3.569 0 0 0-2.136.8l-.87-2.135a8.94 8.94 0 0 1 1.802-.651 7.338 7.338 0 0 1 1.687-.211 4.8 4.8 0 0 1 2.21.479 3.515 3.515 0 0 1 1.455 1.353 3.952 3.952 0 0 1 .519 2.053v5.08h-2.127l-.167-.94a3.519 3.519 0 0 1-1.2.817 3.949 3.949 0 0 1-1.551.299 3.251 3.251 0 0 1-2.184-.721 2.338 2.338 0 0 1-.848-1.872m2.53-.58a.86.86 0 0 0 .339.708 1.394 1.394 0 0 0 .892.268 1.844 1.844 0 0 0 1.27-.457 1.448 1.448 0 0 0 .515-1.125v-.176a4.706 4.706 0 0 0-.7-.167 4.518 4.518 0 0 0-.733-.062 2.178 2.178 0 0 0-1.165.264.836.836 0 0 0-.417.747M71.273 33.146v-8.79h2.215l.105 1.073a3.566 3.566 0 0 1 1.244-.923 3.864 3.864 0 0 1 1.595-.325 3.132 3.132 0 0 1 2.452 1.016 4.067 4.067 0 0 1 .914 2.825v5.124h-2.54v-4.632q0-2.136-1.6-2.136a1.676 1.676 0 0 0-1.34.607 2.564 2.564 0 0 0-.514 1.705v4.456ZM81.166 32.03l1.195-1.908a10.662 10.662 0 0 0 1.393.795 2.76 2.76 0 0 0 1.139.295 1.028 1.028 0 0 0 .624-.176.536.536 0 0 0 .237-.448.729.729 0 0 0-.444-.642 9.638 9.638 0 0 0-1.024-.483q-.615-.255-1.235-.576a3.241 3.241 0 0 1-1.037-.83 2.013 2.013 0 0 1-.417-1.319 2.268 2.268 0 0 1 .883-1.837 3.86 3.86 0 0 1 2.5-.72 7.607 7.607 0 0 1 1.666.197 5.272 5.272 0 0 1 1.595.637l-1.116 1.925a4.155 4.155 0 0 0-1.006-.453 3.592 3.592 0 0 0-1.051-.197 1.683 1.683 0 0 0-.54.101.388.388 0 0 0-.295.391.62.62 0 0 0 .409.536 10.438 10.438 0 0 0 .97.431q.608.237 1.249.558a3.35 3.35 0 0 1 1.086.852 2.103 2.103 0 0 1 .444 1.393 2.386 2.386 0 0 1-.475 1.486 2.99 2.99 0 0 1-1.266.953 4.479 4.479 0 0 1-1.75.33 6.041 6.041 0 0 1-1.875-.316 6.488 6.488 0 0 1-1.86-.976M89.67 30.729a2.6 2.6 0 0 1 .505-1.573 3.435 3.435 0 0 1 1.392-1.1 4.859 4.859 0 0 1 2.03-.403 7.056 7.056 0 0 1 .761.044c.266.029.535.067.805.114q-.29-1.433-2.084-1.433a3.569 3.569 0 0 0-2.136.8l-.87-2.135a8.94 8.94 0 0 1 1.802-.651 7.338 7.338 0 0 1 1.687-.211 4.796 4.796 0 0 1 2.211.479 3.511 3.511 0 0 1 1.455 1.353 3.952 3.952 0 0 1 .52 2.053v5.08H95.62l-.167-.94a3.538 3.538 0 0 1-1.2.817 3.961 3.961 0 0 1-1.552.299 3.256 3.256 0 0 1-2.185-.721 2.34 2.34 0 0 1-.847-1.872m2.531-.58a.858.858 0 0 0 .338.708 1.392 1.392 0 0 0 .892.268 1.844 1.844 0 0 0 1.27-.457 1.442 1.442 0 0 0 .516-1.125v-.176a4.72 4.72 0 0 0-.7-.167 4.527 4.527 0 0 0-.734-.062 2.17 2.17 0 0 0-1.164.264.835.835 0 0 0-.418.747M107.505 32.02a4.55 4.55 0 0 1-1.534.959 5.346 5.346 0 0 1-1.938.343 5.134 5.134 0 0 1-2.492-.594 4.492 4.492 0 0 1-1.726-1.625 4.684 4.684 0 0 1 0-4.703 4.492 4.492 0 0 1 1.726-1.625 5.134 5.134 0 0 1 2.492-.594 5.346 5.346 0 0 1 1.938.343 4.534 4.534 0 0 1 1.534.958l-1.784 1.679a2.06 2.06 0 0 0-1.688-.783 2.096 2.096 0 0 0-1.6.677 2.59 2.59 0 0 0 0 3.393 2.096 2.096 0 0 0 1.6.677 2.06 2.06 0 0 0 1.688-.783ZM108.566 24.357h1.45V22.16h2.531v2.197h2.136v2.197h-2.136v3.235a1.244 1.244 0 0 0 .4.98 1.475 1.475 0 0 0 1.015.356 2.427 2.427 0 0 0 .941-.203v2.075a4.528 4.528 0 0 1-1.644.325 2.93 2.93 0 0 1-3.243-3.243v-3.525h-1.45ZM116.457 21.368a1.33 1.33 0 1 1 .387 1.02 1.377 1.377 0 0 1-.387-1.02m.141 2.989h2.531v8.789h-2.531ZM120.62 28.751a4.53 4.53 0 0 1 .61-2.352 4.403 4.403 0 0 1 1.67-1.625 5.196 5.196 0 0 1 4.822 0 4.435 4.435 0 0 1 1.666 1.625 4.84 4.84 0 0 1 0 4.704 4.428 4.428 0 0 1-1.666 1.625 5.196 5.196 0 0 1-4.821 0 4.396 4.396 0 0 1-1.67-1.625 4.527 4.527 0 0 1-.611-2.352m2.46 0a2.385 2.385 0 0 0 .634 1.696 2.228 2.228 0 0 0 3.199 0 2.589 2.589 0 0 0 0-3.392 2.228 2.228 0 0 0-3.2 0 2.385 2.385 0 0 0-.632 1.696M131.589 33.146v-8.79h2.215l.105 1.073a3.557 3.557 0 0 1 1.244-.923 3.864 3.864 0 0 1 1.595-.325 3.132 3.132 0 0 1 2.452 1.016 4.066 4.066 0 0 1 .914 2.825v5.124h-2.54v-4.632q0-2.136-1.6-2.136a1.678 1.678 0 0 0-1.34.607 2.564 2.564 0 0 0-.514 1.705v4.456ZM34.576 17.284l-.003.004.001-.001.002-.003M34.58 17.284l-.006.003-.003.005.009-.008" class="cls-4"/></g><g style="clip-path:url(#clip-path-2)"><path d="M0 0h34.583v29.891H0z" style="fill:url(#linear-gradient)"/></g><g class="cls-2"><path d="m34.576 17.287-.003.003.001-.001.002-.002z" class="cls-4"/><path d="m34.58 17.287-.006.002-.003.005.009-.007M24.767 29.674a38.674 38.674 0 0 1-7.527 4.909h17.34V17.287a38.831 38.831 0 0 1-9.813 12.387" class="cls-4"/><path d="m34.58 17.287-.008.007a38.839 38.839 0 0 1-9.808 12.38 38.727 38.727 0 0 1-7.528 4.91h.004a38.72 38.72 0 0 0 7.528-4.91 38.853 38.853 0 0 0 9.812-12.387" class="cls-4"/><path d="M5.107 22.658V5.894h6.125a6.986 6.986 0 0 1 4.185 1.09 3.677 3.677 0 0 1 1.492 3.168 3.948 3.948 0 0 1-.626 2.258 4.016 4.016 0 0 1-1.788 1.43 4.593 4.593 0 0 1 2.269 1.559 4.24 4.24 0 0 1 .793 2.62 4.022 4.022 0 0 1-1.61 3.448 7.447 7.447 0 0 1-4.503 1.19Zm5.99-13.747h-2.57v3.688h2.57a2.778 2.778 0 0 0 1.733-.475 1.626 1.626 0 0 0 .614-1.37 1.63 1.63 0 0 0-.614-1.368 2.784 2.784 0 0 0-1.733-.475M8.527 19.64h2.794a3.26 3.26 0 0 0 2.045-.564 1.936 1.936 0 0 0 .726-1.626 1.908 1.908 0 0 0-.726-1.616 3.318 3.318 0 0 0-2.045-.552H8.527ZM22.701 21.616a35.687 35.687 0 0 0 3.42-1.878V8.91h4.793V5.892H17.907V8.91h4.794Z" class="cls-7"/></g></g></g></svg>