<svg xmlns="http://www.w3.org/2000/svg" width="400" height="206.66667" version="1.0" viewBox="0 0 300 155"><g fill="#fff"><path d="M62.1 9.5C49.6 12.3 34.3 21.3 25.8 31c-6.3 7.1-10.6 14.7-14.1 24.7-2.9 8.1-3.1 9.8-3.1 21.8s.2 13.7 3.1 21.8c6.9 19.6 19 33 37.5 41.7 15.2 7.1 35.9 8 51.8 2.1 22.6-8.4 38.9-26.8 44.5-50.3.8-3.5 1.5-8 1.5-10.1V79l-21.7.2-21.6.3-.4 3c-.7 4.8-5.5 12.6-9.7 15.7C75.9 111 52 99.1 52 77.5c.1-16.8 14.8-28.9 30.9-25.3 3.1.7 5.9 1.2 6.4 1.3.4 0 5.4-8.3 11.1-18.5l10.4-18.5-4.5-2.3C95.1 8.4 76.4 6.4 62.1 9.5zm26.4 2.1c4.7.3 17.8 4.8 18.3 6.2.1.5-1.7 4.4-4.2 8.5-2.4 4.2-4.7 8.5-5.1 9.6-.3 1.2-1.1 1.8-1.7 1.5-.6-.4-.8-.2-.4.4.3.6.2 1.3-.4 1.7-.6.4-.8 1.1-.5 1.6.4.5.2.9-.2.9-.5 0-1.9 2-3 4.4l-2.2 4.4-5.3-1.2c-7-1.6-11.9-1.1-17.7 1.9C61 54 53 61.1 53 63c0 .6-.5.8-1.2.4-.6-.4-.8-.3-.5.3.4.6 0 3.1-.9 5.7-1.9 5.5-1.4 15.6.9 19.3.5.7.5 1.9.1 2.5-.4.7-.4 1 .1.6.5-.5 2 .9 3.4 3 2.9 4.3 6 7.1 7.9 7.2.7 0 1.5.6 1.8 1.3.6 1.7 3.2 2.1 13.9 2.1 8 .1 9.4-.2 13-2.5 5.6-3.6 10.3-9.3 13.1-15.6L107 82h18.4c13.7 0 18.5.3 18.8 1.2 1.3 3.9-5.4 24.2-9.5 28.7-1.2 1.3-1.5 2-.7 1.6.8-.5.2.6-1.3 2.5-4.5 5.5-13.9 15-14.8 15-.4 0-2 1-3.6 2.3-1.5 1.3-5.5 3.4-8.8 4.7-3.3 1.3-6.5 2.8-7.1 3.2-.6.5-6 1.5-11.8 2.4-8.8 1.3-11.9 1.4-16.9.4-3.4-.6-6.9-1.3-7.7-1.4-.9-.1-2-.5-2.5-.8-.6-.3-2.5-.9-4.4-1.3-2.5-.5-3-1-2-1.6.9-.6.4-.7-1.5-.3-2.2.5-2.7.4-2.1-.6.5-.9.4-1.1-.4-.6-.6.4-2.4 0-3.9-1s-2.8-1.7-3-1.6c-.8.6-17.2-15.1-17.2-16.5 0-.7-.9-1.7-2-2.3-1.1-.6-1.8-1.5-1.5-1.9.2-.5-.1-1.4-.9-2-.7-.6-2-2.8-2.8-4.8-.9-2.1-2.6-6.3-3.9-9.3-2-4.8-2.3-7.3-2.3-19.5-.1-15 1.4-22.1 6.6-31.6 1.3-2.3 2.9-5.3 3.7-6.6.7-1.4 4.6-5.8 8.5-9.9 6-6.1 7.5-7.1 8.7-6.1.7.6 1 .8.7.3C37.7 22 54 13.8 64.7 12c4-.6 7.6-.9 8.1-.6.4.2 1.4 0 2.2-.5.8-.5 3.3-.6 5.5-.3 2.2.4 5.8.8 8 1zM138.2 11.6c-1.5 1-2.2 2.5-2.2 4.8 0 6.2 6.6 8.8 10.8 4.3 2.8-3 2.8-5.8-.1-8.5-2.7-2.6-5.4-2.8-8.5-.6zm7.3 1c2.6 2.6 1.6 7.7-1.7 8.8-5.5 1.9-9.3-5.5-4.6-8.8 2.8-2 4.3-2 6.3 0z"/><path d="M139.4 14.4c-1.2 3 .1 5.1 3.1 5.3 2.6.2 2.7.2.9-.6-3.9-1.7-3.9-4.4.1-5.4 1.5-.3 1.3-.5-.8-.6-1.6-.1-3 .5-3.3 1.3zM111.6 17.9c-.3.5-2.1 3.8-4 7.3s-6.4 11.6-9.9 17.9c-4.9 8.7-6.2 11.7-5.4 12.8.9 1.1 1.5.9 3-1 1-1.3 7.2-9.1 13.9-17.2 11.2-13.8 11.9-14.9 10.2-16.2-4.2-3-7.3-4.5-7.8-3.6zm3.9 4.5c1.7 1.2 1.8 1.6.5 3.2-2.6 3.4-3.8 4.9-6.4 7.7-1.4 1.5-2.6 3.2-2.6 3.7s-1.2 1.8-2.6 2.9c-1.5 1.2-2.4 2.1-2 2.1.4 0 .1.6-.6 1.4-.7.8-1.4 1.3-1.6 1.1-.6-.6 4-9.5 5-9.5.5 0 .7-.3.5-.8-.2-.4.4-2.1 1.4-3.7 1-1.7 2.6-4.5 3.6-6.3 1.9-3.6 2.2-3.7 4.8-1.8zM109.5 39.7c-7 8.7-13.3 16.4-13.8 17.1-.7.9-.7 1.6 0 2.3.8.8 4.8-2.1 13.5-9.7 6.8-6 14.3-12.5 16.6-14.4l4.3-3.5-3.9-3.8-3.9-3.8-12.8 15.8zm15.7-8.2c-.4.7-3.2 3.3-6.2 6-3 2.6-6.8 6-8.5 7.4-4.9 4.4-6 4.7-3.1.8 1.6-2 3.3-3.4 3.9-3 .6.4.7.1.2-.6-.4-.8.1-2.2 1.3-3.5 1.2-1.1 3.7-4 5.7-6.3 3.2-3.6 3.9-4.1 5.5-3.1 1 .7 1.6 1.7 1.2 2.3zM114.2 47.2c-11.7 10.1-16 14.4-15.2 15.2.7.7 1.7.7 3.3-.3 1.2-.8 9.4-5.7 18.2-10.9 8.8-5.1 16.1-9.5 16.3-9.7.5-.5-4.9-8.5-5.7-8.4-.3 0-7.9 6.4-16.9 14.1zm17.7-8.8c1 1.2.9 1.8-.6 3.1-3.8 3.5-11.3 7.6-12.4 6.9-.7-.4-1-.3-.7.2.3.5-1 1.9-2.8 3.1-1.9 1.2-3.4 2-3.4 1.8 0-.8 9.4-9.5 10.3-9.5.4 0 .5-.5.1-1.2-.4-.6-.3-.8.4-.4.6.3 1.5-.2 2.1-1.1.6-1 1.1-1.4 1.1-.8 0 .5.7-.1 1.6-1.3 1.8-2.6 2.7-2.7 4.3-.8zM120 53.5c-9.6 5.8-17.8 10.5-18.2 10.5-.5 0-.8.7-.8 1.5s.3 1.5.8 1.5c.4 0 7.5-2.5 15.7-5.6 8.3-3.1 17-6.3 19.5-7.1 2.5-.9 4.7-1.7 4.9-1.9.6-.5-3-9.4-3.7-9.4-.4.1-8.6 4.8-18.2 10.5zm18.5-2.6c-.3.6-1 .9-1.5.6-.5-.3-2 .1-3.2.9-1.3.8-3.5 1.7-5 2-1.4.2-3.6.9-4.7 1.6-1.2.6-2.1.8-2.1.4 0-.3-.8 0-1.7.7-1.2 1-1.5 1-.9.1.4-.7 2.8-2.4 5.4-3.7 2.6-1.4 6.3-3.4 8.2-4.5 2.9-1.7 3.6-1.8 4.8-.6.8.8 1.1 1.9.7 2.5zM122.3 62.2c-12.8 4.7-19.3 7.6-19.3 8.6 0 .8.6 1.2 1.4.9.8-.3 3-.8 4.8-1.1 12.5-2.2 36.1-6.6 36.4-6.9.7-.7-2-8.7-3-8.7-.6.1-9.8 3.3-20.3 7.2zm19.5-.7c-1.5 1.4-11.8 2.8-11.8 1.6 0-.4 1.9-1.4 4.3-2.1 2.3-.7 4.6-1.7 5.1-2.2.5-.4 1.6-.2 2.3.4 1.2.9 1.2 1.3.1 2.3zm-16.1 3.1c-.3.3-1.2.4-1.9.1-.8-.3-.5-.6.6-.6 1.1-.1 1.7.2 1.3.5zM161.7 63.1c-4.4 2.6-6.2 15-3.2 20.9 2.5 4.9 8.1 6.5 12.1 3.6 1.9-1.4 1.9-1.5 0-3.3-1.3-1.3-2-1.5-2.3-.6-.7 2-3 1.5-4.7-.9-3.8-5.5-.4-19.4 3.8-15.9 1.4 1.2 1.9 1.1 3.1-.5 1.2-1.7 1.1-2-.8-3.1-2.7-1.5-5.6-1.6-8-.2zM278.2 64.5c-3.9 4.9-3.5 18.3.5 22.7 2.1 2.3 6.5 2.3 8.6 0 4.1-4.5 4.1-18.9 0-23.4-2.4-2.6-6.8-2.3-9.1.7zm6.3 11.1c0 7.2-.3 8.9-1.5 8.9s-1.6-1.7-1.8-7.9c-.3-8.7.1-11 2.1-10.3.8.2 1.2 3 1.2 9.3zM174 75.9v12.8l2.5-.5c2.3-.4 2.5-.9 2.5-5.8 0-4.7.2-5.4 2-5.4s2 .7 2 5.5c0 5.2.1 5.5 2.5 5.5h2.5V63h-2.5c-2.3 0-2.5.3-2.5 5 0 4.3-.3 5-2 5s-2-.7-2-5c0-4.7-.2-5-2.5-5H174v12.9zM192.6 72.7c-1 5.4-2 11-2.3 12.5-.5 2.5-.3 2.8 2.1 2.8 2.3 0 2.6-.4 2.6-3.6 0-3.3.2-3.5 2.8-3.2 2.2.2 2.8.8 3 3.5.3 2.8.7 3.3 2.9 3.3 2.1 0 2.4-.4 2-2.3-.3-1.2-1.3-6.8-2.3-12.5L201.7 63h-7.4l-1.7 9.7zm6.6.5c.5 4.3.3 4.8-1.4 4.8-1.8 0-2-.5-1.4-3.1.3-1.7.6-4.6.6-6.3.1-4.5 1.6-1.3 2.2 4.6zM208 75.9v12.8l2.5-.5c2.1-.4 2.5-1 2.5-4.1 0-2 .4-4.3 1-5.1 1-1.7 1.2-1.3 2.8 5 .6 2.8 1.4 3.6 3.5 3.8 1.5.2 2.7.2 2.7 0s-1.1-3.6-2.5-7.6l-2.5-7.4 2.4-4.9 2.3-4.9h-2.8c-2.5 0-3 .6-4.5 5.5-1 3-2.1 5.5-2.6 5.5-.4 0-.8.5-.8 1.1 0 .5.6.7 1.3.3.7-.5.6 0-.3 1.1-1.3 1.6-1.5 1.6-1.8.2-.2-.9.2-2.5.7-3.6.6-1.1 1.1-3.8 1.1-6 0-3.7-.2-4.1-2.5-4.1H208v12.9zM225 75.9v12.8l2.5-.5c2.3-.4 2.5-.9 2.5-5.3 0-2.7.4-4.9.8-4.9.5 0 1.4 2.2 2.2 4.9 1.1 4.2 1.7 5 4.2 5.3 1.5.3 2.8.3 2.8.2 0-.2-.9-2.7-2-5.5-1.9-4.7-1.9-5.3-.5-6.9.8-.9 1.5-3.5 1.5-5.8 0-5.2-2.6-7.2-9.2-7.2H225v12.9zm9-5.5c0 2.2-.6 3.6-1.6 4-2.4.9-2.4.9-2.4-3.4 0-3.3.3-4 2-4 1.6 0 2 .7 2 3.4zM242 72.9c0 5.5.4 11.1 1 12.5 1.7 4.7 9.7 4.7 11.8.1.7-1.4 1.2-7.1 1.2-12.5 0-10 0-10-2.5-10-2.4 0-2.4.1-2.7 10.7-.2 8.8-.6 10.8-1.8 10.8-1.2 0-1.6-2-1.8-10.8-.3-10.6-.3-10.7-2.7-10.7-2.5 0-2.5 0-2.5 9.9zM260 75.4v12.4l6.5.4c6.2.3 6.5.2 6.5-2 0-1.9-.5-2.2-4-2.2h-4V63h-5v12.4zM144.9 66.4c-.4.4-39.7 7.6-41.2 7.6-.4 0-.7.4-.7 1s8 1 22 1h22v-4.4c0-4-1-6.3-2.1-5.2zm-1.2 4.8c-.2.9-2.5 1.3-6.5 1.3-6.9.1-7.2-.5-.9-1.6 6.7-1.1 7.9-1 7.4.3z"/></g></svg>