<svg xmlns="http://www.w3.org/2000/svg" xml:space="preserve" width="350.943" height="203.963"><switch><g><path fill="#fff" d="M3.799 200.018v1.607c0 .438.146.73.146.876.146.147.438.293.585.293.292 0 .729.146 1.169.146V203.378s0 .146-.146.146h-1.17c-.291 0-.438 0-.729-.146h-.585c-.584 0-1.022 0-1.461.146H.147v-.585h.585c.292 0 .584 0 .729-.146.146 0 .293-.146.439-.146 0-.147.146-.439.146-.585v-10.52c-.146-.146-.146-.292-.292-.438s-.438-.146-.585-.146c-.291-.146-.584-.146-1.022-.146L0 190.521c.146-.146.146-.293.146-.293h1.169c.292.146.877.146 1.461.146.438 0 1.023 0 1.461-.146h1.315l.146.146v.292l-.146.146h-.439c-.438 0-.731.146-1.022.292-.146 0-.292.292-.292.73v8.184zM22.646 190.229H26.152V190.667c0 .146 0 .292-.146.292 0 0-.146 0-.292-.146h-.292c-.293 0-.438.146-.585.146-.146 0-.292.146-.292.293-.146.146-.146.292-.146.584V197.241c.146.73.146 1.314.146 1.899v2.629c0 .292.146.584.292.729.146.293.439.438.877.438h.585c.146 0 .146.146.146.146v.292c0 .146-.146.146-.146.146h-1.315c-.438-.146-.877-.146-1.169-.146-.438 0-.877 0-1.314.146h-1.17c-.146 0-.146 0-.146-.146v-.292s0-.146.146-.146h.877c.147 0 .438-.146.585-.291.146-.293.146-.585.146-.877v-4.383c0-.877-.146-1.753-.146-2.63v-2.63l-.877 1.753c-.292.731-.585 1.315-.877 1.899-.291.73-.583 1.315-.73 1.899a10.034 10.034 0 0 0-.584 1.462l-1.899 4.675h-.146s-.146 0-.146-.292c-.146-.293-.146-.438-.292-.73 0-.146-.146-.438-.146-.585l-3.652-8.766c0-.146-.146-.292-.146-.292 0-.147-.146-.147-.146-.147v.585c0 .146-.146.585-.146 1.023v3.215c0 .583-.146 1.022-.146 1.606v2.775c0 .146.146.292.146.292.146.147.292.293.584.293.146.146.439.146.877.146.146 0 .146 0 .146.292v.292h-.876c-.438-.146-.877-.146-1.461-.146-.438 0-1.022 0-1.461.146h-.877s-.146 0-.146-.146v-.292c0-.146.146-.146.146-.146h.293c.438 0 .729-.146.876-.146.292 0 .438-.146.584-.293.146-.146.146-.438.292-.729v-1.899c0-.438 0-1.022.147-1.607v-1.899c0-.585.146-1.169.146-1.753v-2.337c0-.438-.146-.877-.438-1.022-.292-.293-.877-.438-1.754-.438V190.375c0-.146 0-.146.147-.146h1.022c.292.146.729.146 1.022.146.292 0 .584 0 .73-.146h.73c.146 0 .146 0 .146.146.146.146.146.292.292.438l3.944 9.643h.146l4.383-10.227zM34.334 201.479c0 .438 0 .877.293 1.022.146.147.438.293.877.293h.438s.146 0 .146.146c0 0 .146 0 .146.146v.146c0 .146-.146.146-.146.293h-1.315c-.146 0-.293 0-.585-.146H33.02c-.292.146-.439.146-.73.146h-1.607s-.146 0-.146-.146v-.292l.146-.146c.292 0 .438 0 .73-.146.146 0 .438 0 .585-.146.146 0 .292-.147.438-.293.146-.146.146-.292.146-.584V191.69c0-.292 0-.292-.146-.438 0-.146-.146-.146-.146-.293H30.829c-.146 0-.146 0-.146-.146V190.375s.146 0 .292-.146c.438 0 1.169 0 1.899-.146.731 0 1.606-.146 2.483-.146 1.462 0 2.776.438 3.653 1.022.73.438 1.168.877 1.461 1.462.292.583.438 1.168.438 1.753 0 .146-.146.438-.146.729l-.438.877c-.147.293-.439.439-.585.73-.292.146-.438.439-.73.585-.146 0-.292.146-.584.292-.147 0-.439 0-.585.146-.146 0-.438 0-.585.146h-1.169c-.291 0-.438-.146-.438-.146l-.146-.146v-.292l.146-.146h.292c.146.146.292.146.438.146.439 0 .731-.146 1.024-.293.291-.146.583-.438.729-.729.293-.293.438-.585.585-.877 0-.438.146-.73.146-1.169s-.146-.876-.292-1.314c-.146-.438-.293-.731-.585-1.023s-.583-.584-1.022-.73c-.438-.146-.877-.292-1.314-.292-.293 0-.585 0-.73.146-.146 0-.292 0-.439.146 0 0-.146.146-.146.293V201.479zM50.698 196.22l.877-.439c.292-.146.584-.438.876-.877.146-.291.292-.729.292-1.314 0-.876-.292-1.461-.73-2.045-.438-.292-.877-.585-1.314-.585v-.73h.146c.438 0 .877.146 1.315.293a3.62 3.62 0 0 1 1.315.584c.292.292.584.584.876 1.022.146.438.292.876.292 1.315 0 .438-.146.877-.292 1.169-.146.438-.438.73-.73 1.022-.293.292-.585.438-.877.585-.438.146-.73.291-1.168.291v.146c.146 0 .438.146.584.293.146.146.292.292.438.584.146.146.292.293.438.584.146.146.146.292.292.292l2.047 3.215c.146.292.292.438.438.584l.438.439c.146 0 .438.146.584.146h.73l.146.146v.438s0 .146-.146.146h-2.63c-.292 0-.584-.293-1.022-.876-.438-.585-.877-1.316-1.461-2.339-.292-.584-.584-1.022-.876-1.46-.147-.439-.439-.731-.731-1.022 0-.147-.146-.147-.146-.293v-1.314zm-2.045 0c.146 0 .292.146.292.146h.438c.293 0 .73-.146 1.17-.146h.146v1.314c-.146-.146-.438-.292-.585-.438-.292-.146-.438-.146-.877-.146h-.583V202.063c0 .146 0 .292.146.438 0 .147.146.147.292.293 0 0 .292.146.438.146h.877c.147 0 .147 0 .147.146v.292c0 .146-.147.146-.293.146h-1.314c-.439-.146-.877-.146-1.316-.146h-.438c-.292.146-.585.146-.877.146h-1.314s-.146 0-.146-.146v-.292s0-.146.146-.146h.292c.292 0 .585-.146.877-.146.146 0 .292-.146.438-.146.147-.147.147-.293.293-.439v-10.52c0-.292 0-.438-.146-.438 0-.146-.147-.293-.293-.293-.146-.146-.438-.146-.73-.146H45c-.146 0-.146 0-.146-.146v-.292c0-.146 0-.146.146-.146h5.697v.73c-.293-.146-.438-.146-.73-.146s-.585 0-.731.146c-.146 0-.291 0-.438.146 0 0-.146.146-.146.292v4.824zM69.106 203.086c.877 0 1.607-.146 2.339-.585.584-.292 1.168-.729 1.606-1.314s.73-1.169 1.023-1.899c.146-.73.292-1.46.292-2.337 0-.73-.146-1.607-.438-2.338-.146-.731-.584-1.461-1.023-2.046-.438-.585-1.022-1.022-1.753-1.461-.729-.292-1.314-.438-2.191-.438v-.73c1.022 0 1.899.146 2.776.585.876.292 1.753.73 2.338 1.314.729.585 1.314 1.315 1.752 2.045.293.877.585 1.754.585 2.776 0 .877-.292 1.753-.585 2.63-.438.877-1.022 1.607-1.752 2.338-.73.584-1.462 1.169-2.338 1.606-.877.293-1.754.585-2.776.585v-.73h.145zm-.145-12.419-.146-.146c-.877 0-1.607.292-2.191.584-.731.292-1.17.73-1.607 1.315-.439.438-.877 1.168-1.022 1.753-.146.729-.292 1.606-.292 2.337 0 .731.146 1.607.292 2.339.291.876.583 1.46 1.022 2.191.585.584 1.168 1.022 1.753 1.46.73.293 1.461.585 2.191.585v.73a9.18 9.18 0 0 1-2.776-.438c-.876-.292-1.607-.877-2.337-1.314-.73-.585-1.17-1.314-1.607-2.191-.438-.73-.585-1.754-.585-2.776s.147-1.899.585-2.775c.438-.877.877-1.607 1.607-2.192.584-.73 1.461-1.169 2.337-1.606.877-.293 1.754-.585 2.776-.585v.729zM81.965 191.544c-.146-.146-.146-.292-.292-.292-.146-.146-.293-.146-.439-.293-.146 0-.292 0-.438-.146h-.438v-.585H81.819c.146 0 .438 0 .584.146h.438c.438 0 .877 0 1.314-.146h1.316v.585l-.877.146h-.439c-.146.146-.291.146-.291.293 0 .146 0 .292.146.292v.292l2.191 5.698 1.315 2.775c0 .146 0 .292.146.292 0 0 .146 0 .146-.292l2.776-7.013c.146-.438.291-.876.291-1.169.147-.292.147-.584.147-.584 0-.146 0-.292-.147-.438 0-.146-.146-.146-.438-.146l-1.022-.146h-.145v-.585h1.169c.292.146.73.146 1.022.146h.585c.146-.146.438-.146.584-.146h1.023v.438l-.292.146-.585.146c-.146 0-.292 0-.292.146a2.033 2.033 0 0 0-.438.584c-.293.731-.585 1.462-.73 2.046-.292.585-.439 1.022-.73 1.607l-.438 1.314c-.146.438-.438.877-.585 1.315-.146.438-.292.877-.585 1.461-.146.438-.291 1.022-.583 1.607l-.877 2.483c-.146.146-.146.146-.146.292h-.292l-.146-.146-4.969-12.123zM101.104 200.018v1.607c0 .438.146.73.293.876.146.147.292.293.584.293.146 0 .585.146 1.022.146l.147.146v.292l-.147.146h-1.315c-.292 0-.438 0-.73-.146h-.584c-.438 0-.877 0-1.462.146h-1.314c-.146 0-.146-.146-.146-.293 0-.146 0-.292.146-.292h.438c.292 0 .585 0 .73-.146.292 0 .292-.146.438-.146.146-.147.146-.439.146-.585v-10.52c-.146-.146-.146-.292-.292-.438-.146-.146-.292-.146-.584-.146-.293-.146-.585-.146-1.023-.146v-.585h1.17c.291.146.876.146 1.46.146.439 0 1.022 0 1.462-.146h1.314l.146.146V190.811h-.584c-.292 0-.73.146-.876.292-.293 0-.439.292-.439.73v8.185zM109.578 192.566v-.584c-.146-.146-.146-.292-.292-.292l-.438-.438c-.147 0-.147-.146-.293-.146-.146-.146-.292-.146-.292-.146l-1.023-.146h-.146V190.376c0-.146 0-.146.146-.146h2.921c.292 0 .438 0 .73.146h.438l5.698 6.867c.438.585.877 1.022 1.315 1.607l1.754 1.752v-9.057c-.147-.146-.147-.292-.293-.438-.146 0-.146-.146-.292-.146h-.439l-.875-.146V190.377c0-.146 0-.146.146-.146h.877c.438.146 1.022.146 1.46.146.439 0 .731 0 1.169-.146h1.023c.146 0 .146 0 .146.146v.438h-.584c-.438 0-.585.146-.877.146-.146.146-.292.293-.292.438-.146.146-.146.438-.146.73V203.964h-.439l-10.227-11.542v9.642c.146.146.146.292.292.438.146.147.292.293.584.293.293 0 .585.146 1.022.146 0 .146.146.146.146.292l-.146.146v.146h-1.023c-.146 0-.438 0-.73-.146h-1.169c-.292.146-.438.146-.583.146h-1.024c-.146 0-.146-.146-.146-.438v-.146h.293c.146 0 .292 0 .584-.146.146 0 .293 0 .438-.146.292 0 .292-.147.438-.293.146-.146.146-.438.146-.584v-9.206zM139.676 202.648c-.292.146-.73.438-1.169.583-.438.146-.877.146-1.314.293-.293.146-.73.146-1.17.146-.292.146-.584.146-.875.146a8.833 8.833 0 0 1-3.507-.73c-.877-.292-1.754-.877-2.339-1.461-.583-.73-1.168-1.461-1.46-2.191a5.849 5.849 0 0 1-.439-2.191c0-1.022.146-1.899.439-2.63.292-.877.73-1.461 1.168-2.046.439-.438 1.023-.877 1.607-1.314.584-.293 1.169-.585 1.754-.73.584-.293 1.169-.293 1.606-.439.585-.146 1.022-.146 1.461-.146.877 0 1.607.146 2.338.292.585.293 1.315.438 1.753.73 0 .146.146.146.146.438v2.045c0 .146 0 .146-.146.146H139.091c0-.438-.146-.73-.293-1.022-.292-.438-.438-.73-.729-1.022-.439-.146-.731-.438-1.17-.585-.584-.146-1.022-.292-1.606-.292-.585 0-1.17.146-1.899.438-.73.146-1.315.438-1.899 1.022-.585.438-1.022 1.023-1.461 1.899-.292.73-.438 1.753-.438 2.775 0 .877 0 1.607.292 2.484.292.73.73 1.314 1.169 1.899.585.585 1.168 1.022 1.753 1.314.731.438 1.314.585 2.046.585.584 0 1.168-.146 1.461-.146.438-.146.877-.291 1.169-.584.292-.146.438-.292.585-.584.146-.293.292-.585.292-.877v-1.315c0-.438-.146-.729-.438-.877-.146-.146-.438-.292-.877-.292h-1.461s-.146-.146-.146-.292 0-.291.146-.291c0-.147 0-.147.146-.147h5.552v.293s0 .146-.146.292h-.292c-.146 0-.438.146-.584.146-.146 0-.292 0-.292.146-.146 0-.146.146-.146.293-.146.146-.146.292-.146.584v3.215zM156.917 192.858v-.877c0-.292-.146-.438-.146-.584-.146-.292-.293-.292-.585-.438-.146 0-.438-.146-.877-.146h-.146c-.146 0-.146-.146-.146-.292s0-.293.146-.293h1.461c.293.146.73.146 1.023.146.584 0 1.022 0 1.46-.146h1.462c.146 0 .146.146.146.146v.292c0 .146-.146.146-.146.146h-.293l-.729.146c-.293 0-.439.146-.585.293a1.115 1.115 0 0 0-.292.729v8.183c0 .438 0 1.022.146 1.314 0 .293.146.585.292.877.146.146.439.293.877.293.292.146.73.146 1.314.146h1.022c.877 0 1.462-.146 1.754-.293.146 0 .293-.146.293-.146.146-.146.146-.292.292-.438 0-.146.146-.146.146-.292s.146-.146.146-.293l.438-.73H165.828s.146 0 .146.147l-.584 1.899c0 .146-.146.438-.146.583-.147.146-.293.293-.439.293h-3.359c-1.024-.146-2.192-.146-3.215-.146-.438 0-.877 0-1.461.146h-1.607l-.146-.146v-.146c0-.146.146-.146.146-.292h.584c.146 0 .293-.146.585-.146.146 0 .146 0 .292-.146.146 0 .146-.147.293-.293v-9.496zM173.864 200.018v1.607c0 .438.146.73.292.876.146.147.292.293.585.293.146 0 .584.146 1.022.146l.146.146v.292l-.146.146H174.447c-.146 0-.438 0-.729-.146h-.438c-.438 0-.877 0-1.315.146h-1.461c-.146 0-.146-.146-.146-.293 0-.146 0-.292.146-.292h.438c.292 0 .584 0 .73-.146.292 0 .438-.146.438-.146.146-.147.146-.439.146-.585v-10.52c0-.146-.146-.292-.292-.438-.146-.146-.292-.146-.584-.146-.292-.146-.584-.146-1.023-.146v-.292c0-.146 0-.293.146-.293h1.023c.293.146.877.146 1.462.146.438 0 .876 0 1.314-.146h1.461v.584h-.584c-.292 0-.731.146-.877.292-.292 0-.438.292-.438.73v8.185zM182.192 192.274c0-.293 0-.438-.146-.585 0-.292 0-.438-.146-.438 0-.146-.146-.146-.438-.293h-.877c-.438 0-.584 0-.584-.146s0-.146.146-.292c0-.146 0-.146.146-.146h7.744c.292 0 .583 0 .876-.146H190.082l.146.146V193.003h-.583v-.291c-.147-.146-.147-.292-.147-.292l-.146-.585c-.146-.438-.292-.584-.584-.73-.147-.146-.438-.146-.73-.146h-2.631c-.438 0-.584 0-.876.146-.146 0-.292.146-.438.292-.146.146-.146.292-.146.438-.147.292-.147.585-.147.877v3.36h2.776c.438 0 .73 0 1.022-.146.293 0 .439-.146.731-.146.146-.146.146-.292.291-.584v-.584c.147 0 .293-.146.293-.146h.292V198.411c0 .146 0 .146-.292.146h-.146c0-.146-.147-.292-.147-.438 0-.146 0-.291-.146-.584 0-.146-.146-.292-.292-.438-.146-.146-.438-.146-.585-.293-.292-.146-.584-.146-1.022-.146h-2.776v4.968c0 .292.147.584.293.876 0 .147.292.293.877.293l.877.146c.146 0 .146 0 .146.146v.292c0 .146-.146.146-.146.146h-1.753c-.146 0-.293 0-.584-.146h-1.315c-.146.146-.438.146-.73.146h-1.168c-.146 0-.146 0-.146-.146V202.941l.877-.146h.585c.146-.146.292-.146.292-.293.146-.146.146-.146.292-.438v-9.79zM196.657 192.128c0-.292-.146-.584-.146-.73l-.438-.438c-.146 0-.438-.146-.73-.146h-.73V190.376s0-.146.146-.146h1.899c.438.146.876.146 1.314.146.293 0 .73 0 1.023-.146H204.108c.146 0 .146 0 .146.146V192.859c0 .146 0 .146-.146.146h-.146c-.146 0-.293 0-.293-.146v-.584c0-.293-.146-.585-.291-.73 0-.146-.146-.292-.292-.438-.292-.146-.439-.146-.731-.146-.146-.146-.438-.146-.73-.146h-1.899c-.292 0-.438 0-.729.146-.147 0-.293 0-.293.146-.146.146-.292.292-.292.584 0 .146-.146.438-.146.877v3.36s.146 0 .146.146l2.337-.146c.585 0 .877 0 1.17-.292.146-.146.438-.584.584-1.022v-.146h.293c.146 0 .146 0 .146.146v.876c-.146.292-.146.585-.146 1.022 0 .439 0 .877.146 1.169v.585c0 .146 0 .146-.146.292h-.147a.314.314 0 0 1-.292-.292c0-.146-.146-.438-.146-.585v-.438c-.146-.146-.146-.292-.292-.439h-.585l-2.776-.146c-.146 0-.146 0-.146.146 0 0-.146 0-.146.147v4.382c0 .439.146.731.291.877 0 .146.292.292.439.439.146 0 .438.146.729.146h3.214c.292-.146.584-.146.877-.293l.292-.292c.146-.146.292-.438.438-.584 0-.146.147-.293.293-.584 0-.146.146-.292.146-.439h.438l.146.147v.146c0 .146 0 .146-.146.146l-.438 1.898c-.146.292-.146.438-.292.585H201.332c-.585 0-1.168 0-1.753-.146h-2.484c-.292.146-.584.146-.876.146h-1.607c-.146 0-.146 0-.146-.146V202.941h.146c.292 0 .73-.146 1.022-.146.146 0 .438-.146.585-.293.146-.146.292-.292.292-.584.146-.146.146-.585.146-1.022v-8.768zM225.731 201.479c0 .438.146.585.146.877l.438.438c.292 0 .438.146.729.146h.877v.585h-1.314c-.438-.146-1.022-.146-1.607-.146h-.877c-.292.146-.584.146-.876.146H221.786v-.584H222.224c.439 0 .877-.146 1.023-.146.292-.146.438-.146.584-.438.146-.146.146-.292.146-.584 0-.293.146-.585.146-1.022v-8.913l-.146-.877h-2.484c-.438 0-.729 0-.876.146-.293.146-.438.292-.584.438-.146.146-.146.438-.292.73-.147.292-.147.438-.293.729 0 .147-.146.293-.146.293-.292 0-.438-.146-.438-.293v-1.315c.146-.292.146-.73.146-1.022v-1.168h.584c.147.146.293.291.293.438.146 0 .292.146.438.146 0 .146.146.146.293.146h8.327c.293-.146.439-.146.585-.292.146 0 .292-.146.438-.292s.292-.293.292-.438H230.698c0 .146.146.146.146.146V189.791c0 .146-.146.438-.146.731 0 .292-.146.584-.146.876 0 .438 0 .73-.146 1.023v.438c0 .146 0 .146-.146.146h-.292c-.146 0-.292 0-.292-.146v-.877c0-.292-.146-.438-.146-.584-.146-.146-.146-.292-.292-.292s-.146-.146-.438-.146h-3.068v10.519zM242.388 203.086c.877 0 1.606-.146 2.338-.585a4.565 4.565 0 0 0 1.607-1.314c.438-.585.73-1.169 1.022-1.899.146-.73.292-1.46.292-2.337 0-.73-.146-1.607-.438-2.338-.146-.731-.585-1.461-1.022-2.046-.438-.585-1.022-1.022-1.753-1.461-.731-.292-1.315-.438-2.191-.438v-.73c1.022 0 1.899.146 2.774.585.877.292 1.754.73 2.339 1.314.73.585 1.314 1.315 1.753 2.045.292.877.584 1.754.584 2.776 0 .877-.292 1.753-.584 2.63-.438.877-1.022 1.607-1.753 2.338-.731.584-1.462 1.169-2.339 1.606-.875.293-1.752.585-2.774.585v-.73h.145zm-.146-12.419-.147-.146c-.876 0-1.606.292-2.19.584-.731.292-1.315.73-1.607 1.315-.438.438-.877 1.168-1.023 1.753-.146.729-.292 1.606-.292 2.337 0 .731.146 1.607.292 2.339.293.876.585 1.46 1.023 2.191.584.584 1.169 1.022 1.753 1.46.73.293 1.462.585 2.192.585v.73a9.18 9.18 0 0 1-2.776-.438c-.877-.292-1.607-.877-2.338-1.314-.73-.585-1.169-1.314-1.607-2.191-.438-.73-.584-1.754-.584-2.776s.146-1.899.584-2.775c.438-.877.877-1.607 1.607-2.192.585-.73 1.461-1.169 2.338-1.606.877-.293 1.753-.585 2.776-.585v.729zM266.934 202.648c-.292.146-.73.438-1.169.583-.438.146-.877.146-1.315.293-.438.146-.73.146-1.169.146-.291.146-.584.146-.876.146a8.84 8.84 0 0 1-3.507-.73c-1.022-.292-1.754-.877-2.337-1.461a6.386 6.386 0 0 1-1.462-2.191 5.867 5.867 0 0 1-.438-2.191c0-1.022.146-1.899.438-2.63.293-.877.585-1.461 1.169-2.046.438-.438 1.023-.877 1.607-1.314.584-.293 1.168-.585 1.753-.73.585-.293 1.169-.293 1.607-.439.584-.146 1.022-.146 1.314-.146.877 0 1.754.146 2.338.292.73.293 1.315.438 1.899.73v.438c0 .146.146.292.146.584V193.443c0 .146 0 .146-.146.146H266.348c-.146-.438-.146-.73-.438-1.022-.146-.438-.439-.73-.731-1.022-.292-.146-.73-.438-1.168-.585-.439-.146-1.022-.292-1.607-.292s-1.169.146-1.754.438c-.73.146-1.314.438-1.899 1.022-.583.438-1.022 1.023-1.46 1.899-.293.73-.585 1.753-.585 2.775 0 .877.146 1.607.438 2.484.293.73.731 1.314 1.17 1.899.584.585 1.022 1.022 1.753 1.314.584.438 1.315.585 2.046.585.584 0 1.022-.146 1.46-.146.439-.146.731-.291 1.023-.584.292-.146.584-.292.73-.584.146-.293.146-.585.146-.877v-1.315c0-.438-.146-.729-.292-.877-.292-.146-.584-.292-1.022-.292h-1.315c-.146 0-.146-.146-.146-.292v-.291c0-.147.146-.147.146-.147h5.552v.585h-.292c-.292 0-.438.146-.585.146s-.292 0-.292.146c-.146 0-.146.146-.292.293v3.799zM274.823 192.128c0-.292-.146-.584-.146-.73l-.438-.438c-.293 0-.439-.146-.731-.146h-.73l-.146-.146v-.292s.146-.146.292-.146h1.899c.438.146.876.146 1.315.146.292 0 .729 0 1.022-.146H282.273c.146 0 .146 0 .146.146V192.859c0 .146 0 .146-.146.146h-.292s-.146 0-.146-.146v-.584c0-.293-.146-.585-.293-.73 0-.146-.146-.292-.438-.438-.146-.146-.292-.146-.585-.146-.146-.146-.438-.146-.729-.146h-1.9c-.292 0-.438 0-.729.146-.146 0-.293 0-.439.146 0 .146-.146.292-.146.584 0 .146-.146.438-.146.877v3.36l.146.146 2.338-.146c.438 0 .877 0 1.169-.292.146-.146.292-.584.438-1.022l.146-.146h.146c.292 0 .292 0 .292.146v.876c-.146.292-.146.585-.146 1.022 0 .439 0 .877.146 1.169v.585c0 .146 0 .146-.146.292h-.146c-.146 0-.293-.146-.293-.292-.146-.146-.146-.438-.146-.585v-.438c-.146-.146-.146-.292-.292-.439h-.73l-2.631-.146c-.146 0-.146 0-.146.146-.146 0-.146 0-.146.147v4.382c0 .439.146.731.291.877 0 .146.293.292.439.439.146 0 .438.146.729.146h3.214c.292-.146.585-.146.877-.293l.292-.292c.146-.146.292-.438.292-.584.146-.146.293-.293.438-.584 0-.146.146-.292.146-.439h.439l.146.147v.146c0 .146-.146.146-.146.146l-.439 1.898c-.146.292-.146.438-.291.585H279.495c-.584 0-1.169 0-1.753-.146h-2.483c-.293.146-.585.146-.877.146H272.629v-.584c.438 0 .876-.146 1.022-.146.292 0 .585-.146.73-.293.146-.146.292-.292.292-.584.146-.146.146-.585.146-1.022v-8.768zM294.547 201.479c0 .438 0 .585.146.877l.438.438c.146 0 .438.146.584.146h1.023v.292c0 .146 0 .293-.147.293h-1.168c-.438-.146-1.022-.146-1.754-.146h-.876c-.292.146-.584.146-.877.146h-1.314v-.146c0-.146-.146-.146-.146-.146 0-.146.146-.146.146-.146v-.146H291.04c.439 0 .73-.146 1.023-.146.146-.146.438-.146.438-.438.146-.146.292-.292.292-.584V190.961h-2.63c-.293 0-.584 0-.876.146l-.439.438c-.146.146-.292.438-.438.73 0 .292-.146.438-.146.729-.146.147-.146.293-.292.293-.292 0-.438-.146-.438-.293v-.438c.146-.292.146-.585.146-.877v-1.022c.146-.438.146-.73.146-1.168H288.264l.438.438c.146 0 .146.146.292.146.146.146.293.146.438.146h8.329c.146-.146.438-.146.584-.292.146 0 .293-.146.438-.292 0-.146.146-.293.292-.438h.292l.147.146c.146 0 .146 0 .146.147 0 0 0 .146-.146.291v.731c-.147.292-.147.584-.147.876-.146.438-.146.73-.146 1.023v.438c0 .146-.146.146-.146.146h-.438c-.147 0-.147 0-.147-.146l-.146-.877c0-.292 0-.438-.146-.584 0-.146-.146-.292-.146-.292-.146 0-.292-.146-.438-.146h-3.068v10.519zM305.359 192.421c0-.293 0-.439-.146-.585 0-.292 0-.438-.146-.584-.146-.146-.292-.146-.584-.293-.293 0-.585-.146-1.022-.146v-.584h1.46c.146 0 .439 0 .585.146h.731c.438 0 .729 0 1.168-.146h1.607v.584H307.99c-.146.146-.438.146-.585.146 0 .146-.146.146-.292.293 0 .146-.146.292-.146.584v4.237h8.036v-4.384c0-.146 0-.292-.146-.438-.146-.146-.291-.146-.438-.293-.146 0-.438-.146-.877-.146h-.146c-.146 0-.146-.146-.146-.292v-.146l.146-.146h1.315c.438.146 1.022.146 1.606.146h.877c.146 0 .438 0 .585-.146h.876V190.666c0 .146 0 .146-.146.146h-.293c-.438 0-.877.146-1.022.292-.292.146-.438.438-.438 1.022v9.351c0 .293 0 .585.146.73.146.146.146.292.292.439.293.146.438.146.585.146.291.146.584.146.73.146.146 0 .146 0 .146.146v.292s0 .146-.146.146h-1.607c-.292-.146-.73-.146-1.169-.146h-.585c-.146.146-.438.146-.583.146h-1.316c-.146 0-.146-.146-.146-.146v-.438h.146c.439 0 .731 0 1.023-.146.293 0 .438-.146.584-.293.146-.146.146-.292.146-.438V196.8h-8.036v4.822c0 .146 0 .438.146.584 0 .146.146.292.146.439.146.146.292.146.584.146.146.146.438.146.876.146.146 0 .146 0 .146.146v.292c0 .146-.146.146-.584.146h-1.169c-.293-.146-.73-.146-1.023-.146-.438 0-.729 0-1.169.146h-1.314s-.146 0-.146-.146v-.438h.73c.293-.146.439-.146.585-.146l.438-.438s.146-.292.146-.438v-9.494zM325.083 192.128c0-.292-.146-.584-.146-.73a90.436 90.436 0 0 1-.438-.438c-.292 0-.438-.146-.731-.146h-.729l-.146-.146v-.292s.146-.146.292-.146h1.899c.438.146.877.146 1.314.146.292 0 .731 0 1.023-.146h5.114c.146 0 .146 0 .146.146V192.859c0 .146 0 .146-.146.146h-.293s-.146 0-.146-.146v-.584a1.11 1.11 0 0 0-.292-.73c0-.146-.146-.292-.438-.438-.146-.146-.292-.146-.584-.146-.146-.146-.438-.146-.73-.146h-1.899c-.292 0-.438 0-.73.146-.146 0-.292 0-.438.146 0 .146-.146.292-.146.584 0 .146-.147.438-.147.877v3.36l.147.146 2.337-.146c.439 0 .877 0 1.169-.292.146-.146.293-.584.438-1.022l.146-.146h.146c.292 0 .292 0 .292.146v.876c-.146.292-.146.585-.146 1.022 0 .439 0 .877.146 1.169v.585c0 .146 0 .146-.146.292h-.146a.314.314 0 0 1-.292-.292c-.146-.146-.146-.438-.146-.585 0-.146 0-.292-.147-.438 0-.146 0-.292-.146-.439h-.729l-2.631-.146c-.146 0-.146 0-.146.146-.147 0-.147 0-.147.147v4.382c0 .439.147.731.293.877 0 .146.292.292.438.439.146 0 .438.146.73.146h3.213c.293-.146.585-.146.877-.293l.293-.292c.146-.146.292-.438.292-.584.146-.146.291-.293.438-.584 0-.146.146-.292.146-.439h.438l.146.147v.146c0 .146-.146.146-.146.146l-.438 1.898c-.146.292-.146.438-.293.585h-3.359c-.585 0-1.17 0-1.753-.146h-2.484c-.292.146-.584.146-.877.146H322.892v-.584c.438 0 .876-.146 1.022-.146.293 0 .585-.146.73-.293.146-.146.293-.292.293-.584.146-.146.146-.585.146-1.022v-8.768zM343.931 196.22c.438-.146.73-.293 1.022-.439a1.5 1.5 0 0 0 .731-.877c.292-.291.438-.729.438-1.314 0-.876-.292-1.461-.877-2.045-.292-.292-.73-.585-1.314-.585v-.73h.146c.584 0 1.022.146 1.46.293.439.146.877.292 1.17.584.438.292.729.584.877 1.022.292.438.292.876.292 1.315 0 .438 0 .877-.146 1.169-.293.438-.438.73-.73 1.022s-.585.438-1.022.585c-.292.146-.731.291-1.023.291v.146c.146 0 .292.146.438.293.293.146.438.292.585.584.146.146.292.293.438.584 0 .146.146.292.146.292l2.046 3.215.584.584c.146.146.293.292.438.439.146 0 .292.146.584.146h.73v.73h-2.776c-.146 0-.438-.293-.876-.876-.438-.585-.877-1.316-1.461-2.339-.293-.584-.585-1.022-.877-1.46-.292-.439-.438-.731-.73-1.022l-.292-.293v-1.314zm-2.045 0c.146 0 .292.146.438.146h.292c.438 0 .877-.146 1.17-.146h.146v1.314l-.438-.438c-.292-.146-.584-.146-.877-.146h-.73v4.675c0 .146.146.292.146.438v.438l.292.293c.146 0 .292.146.585.146h.729c.147 0 .293 0 .293.146v.292c-.146.146-.146.146-.293.146h-1.46c-.439-.146-.731-.146-1.169-.146h-.585c-.146.146-.438.146-.73.146h-1.315c-.146 0-.146 0-.146-.146V202.94h.438c.292 0 .585-.146.73-.146.292 0 .438-.146.585-.146 0-.147.146-.293.146-.439.146-.292.146-.584.146-.877v-9.643c0-.292-.146-.438-.146-.438-.146-.146-.293-.293-.438-.293-.146-.146-.292-.146-.73-.146h-.73l-.146-.146v-.146c0-.146 0-.146.146-.146v-.146H343.932v.73c-.146-.146-.438-.146-.73-.146s-.438 0-.73.146c-.146 0-.292 0-.292.146-.146 0-.146.146-.146.292 0 0-.146.146-.146.292v4.532z"/><path fill="#ED1C24" fill-rule="evenodd" d="M11.104 0h194.172l.293 125.797h-9.935l-.292-116.885H21.038v86.202h-9.934z" clip-rule="evenodd"/><path fill="#104378" d="M20.455 158.378c0 3.799.146 6.721.292 8.767.146 2.191.438 3.652 1.168 4.675.585.877 1.754 1.607 3.068 1.754 1.461.292 3.507.438 5.99.584l.584.73v2.045c0 .293-.292.585-.876.585-.584.146-1.169.146-1.606.146-.439 0-1.023 0-2.047-.146-.876 0-2.045-.146-3.359-.146-1.169 0-2.484-.146-3.799-.146-1.315-.146-2.484-.146-3.507-.146-2.483 0-5.113.146-7.598.293-2.63.146-5.26.292-8.035.292-.293-.146-.438-.731-.438-1.899 0-.731.292-1.169.585-1.314.291-.147 1.168-.293 2.775-.293 1.753 0 3.214-.146 4.236-.292.877-.292 1.754-.731 2.191-1.462.439-.729.731-1.606.877-2.922.146-1.169.146-2.776.146-4.821v-49.821c0-1.461-.146-2.631-.438-3.653s-.73-1.753-1.607-2.337c-.729-.439-1.752-.877-3.214-1.169a46.849 46.849 0 0 0-5.26-.293l-.292-.438L0 105.195c.146-.438.292-.876.73-1.022.292-.146.584-.146 1.022-.146 1.314 0 3.068 0 4.968.292 1.899.146 4.675.146 8.182.146 2.776 0 5.405 0 8.327-.146 2.776-.292 5.261-.292 7.452-.292l.438.729v1.899l-.438.585-2.776.146c-2.046.146-3.799.585-5.26 1.169-1.461.585-2.19 2.046-2.19 4.384v45.439zM106.656 104.027c1.607 0 3.215 0 4.821.146 1.753.146 3.36.146 5.114.146 1.314 0 2.63 0 3.944-.146s2.63-.146 3.944-.146c.731 0 1.315 0 1.462.292.292.146.438.292.438.438v1.607c0 .877-.292 1.315-.73 1.315s-.876 0-1.314-.146c-.585 0-1.169-.146-1.899-.146-1.462 0-2.63.293-3.361.585a4.443 4.443 0 0 0-1.899 1.754c-.291.876-.583 1.898-.583 3.067-.146 1.314-.146 2.776-.146 4.384 0 1.022 0 2.776.146 5.552 0 2.629.146 5.551.146 9.058.146 3.507.146 7.014.292 10.959.146 3.798.146 7.451.293 10.811 0 3.361.146 6.429.146 9.06.146 2.483.146 4.383.146 5.26 0 1.461.438 2.922 1.314 4.236.877 1.462 2.338 2.046 4.676 2.046 2.045 0 3.36.146 3.798.293.585.146.877.438.877.876 0 .584-.146 1.169-.438 1.606-.146.439-.439.731-.585.731-2.776 0-5.259-.146-7.451-.292-2.338-.146-4.529-.293-6.867-.293-2.191 0-4.383.146-6.574.293-2.191.146-4.529.292-6.721.292-.585 0-.877-.438-.877-1.023v-1.022c0-.585.438-1.022 1.169-1.168.585-.147 2.191-.293 4.675-.293 1.022 0 1.899-.584 2.776-1.754.73-1.022 1.169-2.629 1.169-4.382 0-2.776 0-6.283-.146-10.52 0-4.384 0-8.913-.146-13.734s-.146-9.789-.292-14.903c-.147-4.967-.147-9.788-.293-14.172l-.292-.146a326.333 326.333 0 0 0-4.676 9.788c-1.607 3.507-3.214 7.014-4.675 10.52a268.372 268.372 0 0 0-4.384 10.081c-1.314 3.215-2.337 5.991-3.214 8.328l-9.936 25.715c-.146.438-.438.585-.877.585-.584 0-1.022-.585-1.314-1.899s-.73-2.631-1.022-3.945c-.438-1.168-1.022-2.483-1.462-3.652l-19.724-48.068c-.438-.877-.729-1.607-1.022-2.192-.292-.584-.584-.729-.73-.729-.292 0-.438.292-.438 1.168v2.046c0 1.315-.146 3.36-.146 5.844 0 2.484-.146 5.26-.146 8.183a3875.15 3875.15 0 0 0-.438 9.496c-.146 3.215-.146 6.283-.292 9.205 0 2.776-.146 5.406-.146 7.598-.146 2.19-.146 3.652-.146 4.529 0 1.022 0 2.045.146 2.922.146.877.438 1.607 1.023 2.191.584.73 1.461 1.169 2.775 1.461 1.169.292 2.922.438 5.261.438.438 0 .729.584.729 1.753 0 .292 0 .585-.146 1.022 0 .439-.146.731-.438.731-.73 0-2.192-.146-4.529-.292-2.191-.146-4.821-.293-7.598-.293-3.067 0-5.844.146-8.328.293-2.483.146-4.237.292-4.967.292-.439 0-.585-.292-.585-.877v-1.607c0-.438.146-.729.585-.877.292 0 .877-.146 1.46-.146 2.191 0 3.945-.146 5.261-.584 1.168-.293 2.191-1.022 2.922-1.899.73-.73 1.169-2.045 1.314-3.507.293-1.462.293-3.361.293-5.698 0-.73.146-2.484.146-4.967.146-2.484.292-5.406.438-8.768 0-3.214.146-6.721.293-10.373.292-3.652.438-7.158.438-10.373.146-3.214.292-5.99.292-8.328.146-2.338.146-3.799.146-4.383 0-2.776-.729-4.821-2.482-5.991-1.754-1.168-4.821-1.899-9.497-1.899-.438 0-.585-.292-.585-1.168v-1.314c0-.585.292-.877.877-.877 2.045 0 3.944 0 5.844.292 1.899.146 3.944.146 5.991.146 1.314 0 2.629 0 3.944-.146 1.314-.292 2.63-.292 3.944-.292.438 0 .731.292 1.169 1.022.293.584.585 1.314.877 1.899l22.5 54.059h.585l23.958-56.984zM153.118 166.413c0 2.631.583 4.53 1.606 5.553 1.022 1.022 2.923 1.607 5.552 1.607.438 0 1.022 0 1.753.146.731.146 1.169.292 1.316.438.146 0 .292.438.292.876v1.316c0 .438-.146.729-.292.876a.805.805 0 0 1-.731.438c-1.315 0-2.338 0-3.36-.146-1.022 0-2.046-.146-3.068-.146s-2.191-.146-3.36-.146c-1.169-.146-2.483-.146-4.091-.146-.585 0-1.607 0-2.776.146-1.168 0-2.483.146-3.944.146-1.315 0-2.922.146-4.384.146-1.607.146-3.067.146-4.529.146-.292 0-.584-.292-.584-.585-.146-.438-.146-.729-.146-1.022 0-.292 0-.73.292-1.169.292-.438.585-.73.877-.73 1.022 0 2.19 0 3.359-.146a11.303 11.303 0 0 0 3.361-.877c1.022-.438 1.898-1.022 2.483-1.753.73-.877 1.022-1.899 1.022-3.359v-56.397c-.146-.876-.292-1.607-.584-2.045-.292-.585-.731-1.023-1.461-1.315-.585-.292-1.607-.584-2.776-.584-.73 0-1.753.146-2.63.146-1.022.146-1.899.146-2.63.146-.438 0-.585-.146-.585-.438v-1.022c0-.438 0-1.023.293-1.461.146-.438.584-.73 1.314-.73 2.776-.146 6.283-.585 10.52-1.022 4.384-.585 9.059-.731 14.026-.731 8.328 0 14.902 1.899 20.309 5.553 3.214 2.483 5.698 5.113 7.306 8.036 1.606 2.922 2.483 5.989 2.483 9.351 0 1.46-.292 2.922-.877 4.528-.438 1.607-1.169 3.069-2.045 4.529-.877 1.607-2.046 2.922-3.214 4.237-1.315 1.169-2.631 2.191-4.092 3.068-.877.585-1.899 1.022-3.068 1.461-1.168.292-2.191.584-3.214.876-1.022.293-2.192.585-3.215.73-.877.146-1.753.146-2.483.146-1.169 0-2.483 0-3.945-.146-1.46 0-2.337-.146-2.629-.291l-.438-.585v-1.899l.438-.584h4.236c2.191 0 4.091-.438 5.844-1.315 1.607-1.022 2.922-2.191 3.946-3.653a16.915 16.915 0 0 0 2.629-5.404c.585-2.047.877-4.092.877-6.283 0-2.63-.292-4.967-1.169-7.306a15.904 15.904 0 0 0-3.361-5.698c-1.46-1.607-3.214-2.922-5.551-3.944-2.192-.877-4.675-1.315-7.599-1.315-1.606 0-2.774 0-3.798.146-.877.292-1.606.584-2.191 1.023-.438.583-.877 1.168-1.022 2.045a20.529 20.529 0 0 0-.292 3.36v53.178z"/><path fill="#ED1C24" fill-rule="evenodd" d="M324.645 160.424v-2.776h6.283l-6.283-16.218v-8.327c.73-.585 1.462-1.023 2.338-1.316h.146l15.779 39.888a5.41 5.41 0 0 0 .729 1.606c.293.438.731.877 1.17 1.17.438.438.877.583 1.461.729.73.293 1.607.293 2.338.293.292 0 .584.146.73.584.146.293.146.73.146 1.022 0 .293 0 .73-.439.73-.292.146-.584.146-.877.146h-1.314c-.584-.146-1.315-.146-1.899-.146-.73 0-1.461 0-2.19-.146h-5.846c-1.168.146-2.482.146-3.799.292-.291 0-.73 0-.876-.292-.292-.146-.292-.731-.292-1.023 0-.876.73-1.168 1.461-1.168h1.023c.438 0 .876-.146 1.314-.293.438 0 .73-.146 1.022-.438.292-.146.438-.438.438-.73s-.146-.877-.146-1.168c-.292-.877-.584-1.754-.876-2.484l-3.945-9.935h-7.596zm0-27.321v8.327l-.438-1.169-5.845 17.387h6.282v2.776h-7.158l-2.776 8.766c-.438 1.169-.73 2.63-.73 3.944 0 .439.146.877.438 1.169.293.293.73.585 1.17.73.438.293.876.293 1.46.439h1.462c.729 0 .729.877.729 1.46 0 .439 0 1.023-.584 1.023h-1.607c-.73-.146-1.46-.146-2.191-.146-.73 0-1.461 0-2.19-.146h-1.754c-1.022 0-2.046 0-2.922.146-1.17.146-2.192.146-3.215.146-.438 0-1.022 0-1.314-.292-.146-.146-.146-.585-.146-.877v-.73c0-.292.292-.438.584-.438.585-.146 1.022-.292 1.607-.292.584 0 1.314-.146 1.899-.293a3.183 3.183 0 0 0 1.169-.73c.438-.292.585-.729.877-1.169.292-.583.584-1.314.73-2.045l12.564-36.234c.584-.584 1.315-1.169 1.899-1.752zm-67.647 44.561v-2.631c.73-.292 1.461-.438 2.338-.876 2.046-.877 3.944-2.046 5.552-3.799 1.899-1.754 3.068-3.945 4.091-6.282 1.169-2.63 1.607-5.698 1.607-8.621 0-2.337-.293-4.967-1.022-7.305-.585-1.898-1.461-3.652-2.484-5.405-1.022-1.462-2.045-2.776-3.36-3.799a28.346 28.346 0 0 0-3.36-2.484c-1.168-.438-2.338-.73-3.36-1.022v-2.63c1.315.146 2.63.438 3.944.73 2.192.585 4.384 1.607 6.283 2.776 2.045 1.168 3.799 2.775 5.26 4.529 1.606 1.899 2.776 4.09 3.799 6.429.877 2.483 1.314 5.259 1.314 7.889 0 3.507-.584 7.014-2.191 10.228-1.461 2.776-3.36 5.113-5.844 7.013-2.484 1.899-5.114 3.361-8.036 4.237-1.609.438-3.07.731-4.531 1.023zm40.033-2.484c1.168.146 2.484.293 3.652.293l.438.584v1.315c0 .292-.292.438-.731.584h-2.191c-.584-.146-1.314-.146-1.898-.146-.877 0-1.607 0-2.338-.146h-2.192c-1.46 0-3.067 0-4.529.146-1.606.146-3.214.146-4.821.146-.438-.146-.438-.877-.438-1.315 0-.291.146-.73.438-.876.293-.292 1.315-.292 1.754-.292.73 0 1.753 0 2.483-.146a3.183 3.183 0 0 0 1.169-.73c.438-.585.438-1.169.585-1.753V139.97c0-.585 0-1.462-.146-2.045-.146-.585-.438-1.023-.876-1.316-.585-.438-1.315-.583-1.899-.729-1.023-.146-2.192-.146-3.215-.146l-.292-.438-.146-1.022c0-.292.146-.73.438-.877h.73c1.022 0 2.045 0 3.068.146 1.607.146 3.215.146 4.967.146 1.607 0 3.215-.146 4.822-.146 1.606-.146 3.068-.146 4.528-.146h.147l.292.438v1.315l-.292.438-1.754.146c-1.022.146-2.192.293-3.068.73-1.022.293-1.169 1.462-1.169 2.484V171.529c.146.73.293 1.899.73 2.63.439.582 1.024.874 1.754 1.021zm-99.351-35.211c0-.877 0-1.753-.438-2.338a2.862 2.862 0 0 0-1.315-1.314c-.73-.438-1.46-.585-2.191-.585-.73-.146-1.607-.146-2.483-.146-.292 0-.438-.146-.438-.292v-1.167c0-.439.584-.731.877-.731h2.483c1.315 0 2.63 0 3.945.146 1.314 0 2.776.146 4.091.146 1.169 0 2.484-.146 3.652-.146 1.314-.146 2.63-.146 3.799-.146h13.296c.292 0 .584.146.584.438.146.293.146.585.146.877v7.744c0 .292-.146.584-.585.584h-1.022c-.438 0-.73-.292-.73-.731l-.292-2.045c0-.73-.146-1.606-.585-2.337-.292-.585-.877-1.023-1.461-1.316-.584-.438-1.168-.583-1.899-.729-.876-.146-1.607-.146-2.483-.146h-6.429c-.73 0-1.461 0-2.191.146-.438.146-.877.438-1.314.729-.439.439-.585 1.17-.731 1.608-.146 1.022-.146 2.045-.146 2.922V152.682c.146 0 .146.146.292.146l7.306-.293c1.314 0 2.922-.146 3.944-1.022.877-.877 1.314-2.337 1.753-3.507 0-.146.146-.292.292-.438.292-.146.585-.146.877-.146s.877.146.877.584c0 .877-.146 1.9-.146 2.923-.146 1.022-.146 2.191-.146 3.36 0 1.315 0 2.63.146 3.944 0 .73.146 1.462.146 2.192a.8.8 0 0 1-.438.729 1.11 1.11 0 0 1-.73.293c-.585 0-1.17-.293-1.315-1.022-.146-.73-.146-1.462-.292-2.192 0-.438-.146-1.022-.292-1.461-.146-.438-.438-.73-.73-1.022-.585-.293-1.462-.293-2.045-.438l-8.913-.146s-.584 0-.584.146v15.487c0 .73 0 1.754.438 2.483a4.57 4.57 0 0 0 1.607 1.315c.731.292 1.607.438 2.338.584h6.428c1.315 0 2.775 0 4.237-.146a5.273 5.273 0 0 0 2.922-.876c.292-.146.73-.584 1.022-1.023.438-.583.73-1.168 1.169-1.753a26.39 26.39 0 0 1 1.022-1.899c.146-.438.438-.877.585-1.46l.146-.146h.146c.438 0 .876.146 1.315.292.292 0 .729.146.729.585 0 .146-.146.292-.146.438 0 .292-.146.439-.146.585l-1.753 6.428c-.146.293-.438 1.315-.877 1.462-.292.292-.584.292-1.022.292h-5.113c-1.754-.146-3.507-.146-5.261-.146-1.898 0-3.798 0-5.697-.146h-8.475c-.877.146-1.899.146-2.775.146-1.023 0-2.046 0-2.923.146h-2.775c-.292 0-.292-.292-.439-.438 0-.292-.146-.438-.146-.73s0-.438.146-.73c0-.292.147-.438.439-.438 1.168 0 2.191-.146 3.36-.292.73-.146 1.461-.438 2.046-.876.583-.439.876-1.17 1.022-1.899.292-1.023.292-2.339.292-3.361v-29.227h-.003zm59.318-7.159v2.63c-.584-.146-1.022-.146-1.606-.292-1.607-.146-3.069-.293-4.676-.293-1.169 0-2.192 0-3.36.146-.731 0-1.607.146-2.339.584-.438.293-1.022.585-1.314 1.17a6.61 6.61 0 0 0-.438 2.337v29.66c0 1.46.292 2.922 1.169 3.944.73.877 1.607 1.606 2.63 2.045s2.045.585 3.214.731h2.63c1.461 0 2.776-.146 4.091-.439v2.631c-1.461.146-2.922.292-4.529.292-2.338 0-4.676 0-7.159-.146-1.607 0-3.36-.146-4.967-.146-1.607 0-3.215 0-4.676.146-1.607 0-3.215.146-4.822.146-.146 0-.292-.292-.438-.438v-.73c0-.292.146-.585.146-.73.146-.292.292-.584.585-.584.877 0 1.754-.146 2.63-.293.73-.146 1.461-.438 2.046-.729.438-.293.877-.731 1.022-1.316.438-.583.438-1.46.438-2.19v-30.098c0-.585 0-1.169-.146-1.754 0-.438-.146-1.022-.438-1.461-.147-.438-.439-.73-.731-1.023-.292-.291-.877-.438-1.315-.438-.584 0-1.169.146-1.752.146-.731 0-1.462.146-2.192.146-.292 0-.438-.438-.438-.73v-.73c0-.146 0-.438.146-.584.146-.146.877-.292 1.022-.438 1.462-.293 2.776-.438 4.091-.585 1.899-.146 3.652-.291 5.406-.438 1.753-.146 3.652-.292 5.552-.438 1.462 0 3.068-.146 4.676-.146 1.753 0 3.36.146 5.113.292.145-.004.437.143.729.143zM151.219 24.691h13.733v15.342h15.341l-.147 13.734h-15.194v15.487h-13.733V53.767H135.73V40.033h15.489z" clip-rule="evenodd"/></g></switch></svg>