<svg xmlns="http://www.w3.org/2000/svg" width="365.988" height="24.747" viewBox="0 0 365.988 24.747"><g transform="translate(-214 -45.129)" style="isolation:isolate"><g transform="translate(214 45.129)"><path d="M10.457.2a14.855,14.855,0,0,1,5.488,1.029,7.935,7.935,0,0,1,3.6,3.086,7.251,7.251,0,0,1,1.2,4.63,8.9,8.9,0,0,1-1.2,4.633,7.935,7.935,0,0,1-3.6,3.086,14.855,14.855,0,0,1-5.488,1.029H5.488v6.689H0V.372H10.457Zm-.338,12.863a5.727,5.727,0,0,0,3.774-1.023,4.017,4.017,0,0,0,1.372-3.086,3.525,3.525,0,0,0-1.372-3.1A4.91,4.91,0,0,0,10.118,4.83H5.488v8.4h4.63Z" transform="translate(0 -0.008)" fill="#fff"/><path d="M33.095,19.751v4.459H14.4V.2H32.579V4.659H20.059V9.976H31.208v4.287H20.059v5.488Z" transform="translate(10.296 -0.008)" fill="#fff"/><path d="M38.118.2a14.855,14.855,0,0,1,5.488,1.029,7.935,7.935,0,0,1,3.6,3.086,7.7,7.7,0,0,1,1.372,4.63,8.9,8.9,0,0,1-1.2,4.633,7.935,7.935,0,0,1-3.6,3.086,14.855,14.855,0,0,1-5.488,1.029h-4.8v6.689H28V.372H38.118Zm-.343,12.863a5.727,5.727,0,0,0,3.774-1.023,4.017,4.017,0,0,0,1.367-3.094,3.525,3.525,0,0,0-1.372-3.086,4.91,4.91,0,0,0-3.774-1.029H33.311v8.4h4.459Z" transform="translate(20.021 -0.008)" fill="#fff"/><path d="M52.691.2a14.855,14.855,0,0,1,5.488,1.029,7.935,7.935,0,0,1,3.6,3.088,7.25,7.25,0,0,1,1.2,4.63,8.9,8.9,0,0,1-1.2,4.632,7.935,7.935,0,0,1-3.6,3.086,14.855,14.855,0,0,1-5.488,1.029h-4.8v6.689H42.4V.372H52.691Zm-.343,12.863a5.727,5.727,0,0,0,3.772-1.023,4.017,4.017,0,0,0,1.372-3.086A3.525,3.525,0,0,0,56.12,5.868a4.91,4.91,0,0,0-3.774-1.029h-4.46v8.395h4.46Z" transform="translate(30.317 -0.008)" fill="#fff"/><path d="M75.395,19.751v4.459H56.7V.2H74.879V4.659H62.359V9.976H73.508v4.287H62.359v5.488Z" transform="translate(40.542 -0.008)" fill="#fff"/><path d="M85.464,24.211l-4.63-6.689H75.688v6.689H70.2V.2H80.657a14.855,14.855,0,0,1,5.488,1.029,7.935,7.935,0,0,1,3.6,3.086,7.25,7.25,0,0,1,1.2,4.63,7.381,7.381,0,0,1-1.372,4.633,7.411,7.411,0,0,1-3.6,2.922l5.316,7.718H85.464ZM85.292,8.947A3.525,3.525,0,0,0,83.92,5.861a4.91,4.91,0,0,0-3.774-1.029H75.687v8.4h4.459a5.727,5.727,0,0,0,3.774-1.029,3.591,3.591,0,0,0,1.372-3.259Z" transform="translate(50.194 -0.008)" fill="#fff"/><path d="M106.681,24.211V9.8L99.649,21.81H97.076L90.045,10.148V24.211H84.9V.2h4.459l9.09,14.916L107.2.2h4.63V24.211Z" transform="translate(60.706 -0.008)" fill="#fff"/><rect width="5.488" height="24.011" transform="translate(178.363 0.192)" fill="#fff"/><path d="M110.5.2h5.659V19.751h12.005v4.459H110.5Z" transform="translate(79.01 -0.008)" fill="#fff"/><path d="M122.6.2h5.488V19.751h12.176v4.459H122.6Z" transform="translate(87.662 -0.008)" fill="#fff"/><path d="M137.631,17.192a3.4,3.4,0,0,1-2.4-5.831,3.209,3.209,0,0,1,2.4-.858,4.1,4.1,0,0,1,2.4.858,3.315,3.315,0,0,1,0,4.8A2.877,2.877,0,0,1,137.631,17.192Z" transform="translate(95.956 7.354)" fill="#fff"/><path d="M152.235,24.805a15.279,15.279,0,0,1-6.689-1.538,11.588,11.588,0,0,1-4.63-4.46,11.77,11.77,0,0,1-1.715-6.351,11.77,11.77,0,0,1,1.715-6.346,12.465,12.465,0,0,1,11.319-6,16.465,16.465,0,0,1,5.659,1.029,11.013,11.013,0,0,1,4.287,3.086l-3.6,3.266a7.132,7.132,0,0,0-6-2.743,7.967,7.967,0,0,0-3.944,1.029,7.035,7.035,0,0,0-2.743,2.743,8.075,8.075,0,0,0,0,7.889,7.035,7.035,0,0,0,2.743,2.743,7.967,7.967,0,0,0,3.944,1.029,7.317,7.317,0,0,0,6-2.922l3.6,3.259a13.542,13.542,0,0,1-4.287,3.259,15.107,15.107,0,0,1-5.656,1.033Z" transform="translate(99.53 -0.089)" fill="#fff"/><path d="M154.8.2h5.488V19.751h12.005v4.459H154.8Z" transform="translate(110.686 -0.008)" fill="#fff"/><path d="M178.835,24.8a14.747,14.747,0,0,1-6.689-1.538,11.589,11.589,0,0,1-4.63-4.46,11.77,11.77,0,0,1-1.715-6.351,11.77,11.77,0,0,1,1.715-6.346,12.8,12.8,0,0,1,4.63-4.459A13.225,13.225,0,0,1,178.835.108a14.747,14.747,0,0,1,6.689,1.538,11.589,11.589,0,0,1,4.63,4.46,11.77,11.77,0,0,1,1.715,6.346,11.77,11.77,0,0,1-1.715,6.346,12.8,12.8,0,0,1-4.63,4.459A14.746,14.746,0,0,1,178.835,24.8Zm0-4.8a6.92,6.92,0,0,0,3.774-1.029,7.035,7.035,0,0,0,2.743-2.743,8.075,8.075,0,0,0,0-7.889,7.035,7.035,0,0,0-2.743-2.743,7.818,7.818,0,0,0-3.774-1.033,6.92,6.92,0,0,0-3.774,1.029,7.035,7.035,0,0,0-2.743,2.743,8.075,8.075,0,0,0,0,7.889,7.035,7.035,0,0,0,2.743,2.743A6.92,6.92,0,0,0,178.835,20Z" transform="translate(118.55 -0.083)" fill="#fff"/><path d="M194.285,24.724a10.947,10.947,0,0,1-8.061-2.922,10.947,10.947,0,0,1-2.922-8.061V.2h5.488V13.578c0,4.287,1.715,6.517,5.316,6.517a4.826,4.826,0,0,0,3.944-1.538,6.894,6.894,0,0,0,1.372-4.8V.2h5.488V13.578a10.7,10.7,0,0,1-2.922,8.061A9.308,9.308,0,0,1,194.285,24.724Z" transform="translate(131.055 -0.008)" fill="#fff"/><path d="M199.3.2h10.977a15.471,15.471,0,0,1,6.86,1.538,10.8,10.8,0,0,1,4.63,4.121,11.771,11.771,0,0,1,1.715,6.346,11.772,11.772,0,0,1-1.715,6.346,10.672,10.672,0,0,1-4.629,4.115,16.019,16.019,0,0,1-6.86,1.538H199.3Zm10.634,19.551a8.41,8.41,0,0,0,5.831-2.058,6.548,6.548,0,0,0,2.058-5.488,7.348,7.348,0,0,0-2.058-5.488,8.654,8.654,0,0,0-5.831-2.058h-5.145V19.576h5.145Z" transform="translate(142.505 -0.008)" fill="#fff"/></g></g></svg>