<svg enable-background="new 0 0 570.9 97.4" viewBox="0 0 570.9 97.4" xmlns="http://www.w3.org/2000/svg"><g fill="#f5f5f5"><path d="m2.2 2.6h33.4v12.3h2.2c2-4.7 5.5-8.7 10-11.2 4.6-2.5 9.7-3.7 14.9-3.6 9.3 0 16.8 3 22.5 9.1s8.7 15 9.1 26.6l-15.1 2.2c0-8.5-2-14.7-6.1-18.5s-9.5-5.8-15-5.7c-3.5-.1-6.9.7-10 2.2-2.8 1.5-5.2 3.6-7 6.1-1.9 2.7-3.3 5.8-4.1 9.1-.9 3.6-1.3 7.4-1.3 11.1v39h23.4v13.3h-59.1v-13.2h21.2v-65.4h-19z"/><path d="m248.4 2.6-12.2 85.5h-2.2l-10.8-85.5h-26.8l-10.8 85.5h-2.2l-12.3-85.5h-14.8l14.5 92.2h26.7l11.2-85.5h2.2l11.2 85.5h26.7l14.5-92.2z"/><path class="expand" d="m117.5 2.6-14.9 92.2h15.2l14.5-92.2z"/><path d="m325.6 13.8c-3.9 0-7.8.7-11.4 2-6.8 2.4-12.4 7.3-15.8 13.7-1.7 3.2-2.8 6.7-3.2 10.2h59.5c-.2-3.8-1.2-7.4-2.9-10.8-1.6-3.1-3.8-5.9-6.5-8.2s-5.8-4-9.1-5.2c-3.5-1.1-7-1.8-10.6-1.7m-30.9 39.3c.4 9.2 3.2 16.5 8.5 22.1s12.7 8.4 22.3 8.4c3.8.1 7.6-.4 11.3-1.5 3-.9 5.8-2.2 8.3-4.1 2.2-1.6 4.1-3.7 5.6-6 1.4-2.3 2.6-4.8 3.4-7.3l13.7 3.7c-2.4 8.3-7.5 15.6-14.4 20.9-7 5.4-16.4 8.1-28.3 8.1-6.2.1-12.4-1.1-18.1-3.4-5.4-2.2-10.2-5.5-14.2-9.8s-7.2-9.4-9.3-15c-2.3-6.2-3.4-12.7-3.3-19.3v-4.5c0-6.2 1.1-12.3 3.4-18 2.2-5.4 5.4-10.3 9.6-14.4 4.1-4.1 9-7.3 14.4-9.5 5.7-2.3 11.8-3.5 17.9-3.4 7.5 0 14.1 1.4 19.6 4.2 5.2 2.5 9.8 6 13.6 10.3 3.4 3.9 6.1 8.4 7.8 13.3 1.6 4.3 2.4 8.8 2.5 13.4v11.9z"/><path d="m388.2 2.6h33.4v12.3h2.2c2-4.7 5.5-8.7 10-11.2 4.6-2.5 9.7-3.7 14.9-3.6 9.3 0 16.8 3 22.5 9.1s8.7 14.9 9.1 26.6l-15.2 2.2c0-8.5-2-14.7-6.1-18.5s-9.5-5.8-15-5.7c-3.5-.1-6.9.7-10 2.2-2.8 1.5-5.2 3.6-7 6.1-1.9 2.7-3.3 5.8-4.1 9.1-.9 3.6-1.3 7.4-1.3 11.1v39h23.4v13.4h-59v-13.3h21.2v-65.4h-19z"/><path d="m511.4 26.4c-.1 4.2 2 8.1 5.7 10.2 3.8 2.4 10.7 3.9 20.7 4.6 10.8.9 19 3.4 24.6 7.7s8.5 10.5 8.5 18.7v1.1c.1 4.2-.9 8.3-2.7 12-1.8 3.5-4.3 6.6-7.4 9-3.4 2.6-7.3 4.6-11.5 5.7-10.9 2.9-22.5 2.6-33.3-.9-4.7-1.7-9.1-4.3-12.8-7.6-3.3-3-5.9-6.7-7.7-10.8-1.7-3.8-2.7-8-3-12.2l13.7-3.3c.6 7.1 3.3 12.7 8.2 17s11.3 6.4 19.3 6.4c6.8 0 12.3-1.3 16.4-4 4-2.3 6.4-6.6 6.3-11.2 0-5.2-2-8.9-6.1-11.1s-10.7-3.6-19.9-4.3c-10.7-.7-18.8-3.2-24.5-7.4s-8.5-10.3-8.6-18.4v-1.1c-.1-4 .9-7.9 2.8-11.4 1.9-3.3 4.4-6.1 7.5-8.2 3.3-2.3 6.9-4 10.7-5 4-1.1 8.2-1.7 12.4-1.7 5.4-.1 10.9.8 16 2.5 4.2 1.5 8.1 3.7 11.5 6.5 3 2.5 5.4 5.7 7.2 9.2 1.6 3.3 2.7 6.8 3.2 10.4l-13.8 3.3c-.6-5.9-3-10.6-7.2-13.9s-9.6-5-16.2-5c-2.5 0-5.1.3-7.5.8-2.3.5-4.4 1.3-6.4 2.5-1.8 1-3.3 2.5-4.5 4.2-1 1.7-1.6 3.7-1.6 5.7"/></g></svg>