<svg xmlns="http://www.w3.org/2000/svg" width="160.01" height="30.8"><g data-name="Group 5366"><path fill="#fff" d="M46.094 15.517v9.7h-2.752v-9.7h-3.1v-2.26h8.944v2.26Z" data-name="Path 1298"/><path fill="#fff" d="M55.145 13.257q3.734 0 3.734 3.194a2.776 2.776 0 0 1-.524 1.794 1.992 1.992 0 0 1-1.491.713 2.626 2.626 0 0 1 1.875.786 2.866 2.866 0 0 1 .663 2.014q0 3.458-4.192 3.456h-4.358V13.257Zm.614 4.742a.748.748 0 0 0 .426-.418 3.256 3.256 0 0 0 0-1.769.747.747 0 0 0-.426-.418 2.482 2.482 0 0 0-.892-.123h-1.36v2.851h1.343a2.547 2.547 0 0 0 .909-.123m.27 5.021a.845.845 0 0 0 .508-.459 3.231 3.231 0 0 0 0-1.933.849.849 0 0 0-.516-.459 3.382 3.382 0 0 0-1.073-.131h-1.441v3.112h1.441a3.353 3.353 0 0 0 1.081-.131" data-name="Path 1299"/><path fill="#fff" d="M62.155 23.856a6.735 6.735 0 0 1-1.359-4.6q0-6.158 5.454-6.159a7.627 7.627 0 0 1 2.524.393l-.508 2.195a3.891 3.891 0 0 0-1.852-.41 3.686 3.686 0 0 0-1.761.336 1.87 1.87 0 0 0-.843 1.18 12.526 12.526 0 0 0-.009 4.9 1.8 1.8 0 0 0 .836 1.154 3.656 3.656 0 0 0 1.728.328 4.191 4.191 0 0 0 2.146-.508l.492 2.244a7.414 7.414 0 0 1-2.753.475 5.206 5.206 0 0 1-4.095-1.524" data-name="Path 1300"/><path fill="#7063ea" d="M15.302 17.055c.14 1.453.213 2.209-.965 3.453A39 39 0 0 1 6.9 25.991a32.069 32.069 0 0 1-4.469 2.181c-1.007.363-1.853.516-2.273-.212a1.4 1.4 0 0 1 0-1.283c1.093-2.964 4.245-8.5 6.3-12.1.21-.368.426-.745.648-1.127 3.159-5.453 7.35-12.128 8.174-13.2.119-.155.334-.336.536-.219a.39.39 0 0 1 .142.424c0 .024-.053.22-.072.3a45.134 45.134 0 0 0-.584 16.3" data-name="Path 1301"/><path fill="#7063ea" d="M19.918 18.753c-1.328-.605-2.021-.92-2.508-2.563a38.99 38.99 0 0 1-1.03-9.182 31.932 31.932 0 0 1 .347-4.96c.188-1.053.479-1.863 1.32-1.863a1.4 1.4 0 0 1 1.109.644c2.02 2.429 5.235 7.924 7.326 11.5q.321.549.652 1.125c3.143 5.462 6.829 12.43 7.343 13.678.075.181.124.458-.079.574a.389.389 0 0 1-.438-.089 15.271 15.271 0 0 1-.221-.211 45.145 45.145 0 0 0-13.822-8.654" data-name="Path 1302"/><path fill="#7063ea" d="M16.14 21.902c1.188-.848 1.807-1.29 3.473-.89a38.978 38.978 0 0 1 8.466 3.7 31.935 31.935 0 0 1 4.123 2.78c.817.69 1.373 1.347.953 2.075a1.4 1.4 0 0 1-1.113.638c-3.114.535-9.481.572-13.624.595h-1.3c-6.3-.009-14.178-.3-15.517-.48-.194-.026-.458-.122-.458-.355 0-.188.17-.287.3-.334.022-.008.216-.064.293-.086a45.144 45.144 0 0 0 14.405-7.643" data-name="Path 1303"/><path fill="#fff" d="M75.567 13.257h1.326v11.958h-1.326z" data-name="Rectangle 987"/><path fill="#fff" d="m81.071 13.257 6.125 9.4v-9.4h1.23v11.958h-1.048l-6.143-9.4v9.4h-1.229V13.257Z" data-name="Path 1304"/><path fill="#fff" d="m90.718 24.739.263-1.18a7.02 7.02 0 0 0 3.1.688 4.677 4.677 0 0 0 1.54-.2 1.32 1.32 0 0 0 .77-.663 3.166 3.166 0 0 0 .229-1.352 2.05 2.05 0 0 0-.213-1.031 1.926 1.926 0 0 0-.737-.656 18.876 18.876 0 0 0-1.835-.835 8.974 8.974 0 0 1-1.679-.845 2.836 2.836 0 0 1-.925-.991 3 3 0 0 1-.31-1.441q0-3.144 3.472-3.146a7.017 7.017 0 0 1 3 .625l-.279 1.194a5 5 0 0 0-2.652-.687 4.222 4.222 0 0 0-1.376.173 1.149 1.149 0 0 0-.68.6 2.868 2.868 0 0 0-.2 1.212 2.072 2.072 0 0 0 .221 1.049 1.826 1.826 0 0 0 .737.654q.516.278 1.793.8a9.979 9.979 0 0 1 1.738.852 2.722 2.722 0 0 1 .925.967 2.885 2.885 0 0 1 .3 1.393q0 3.455-3.85 3.455a8.339 8.339 0 0 1-3.342-.638" data-name="Path 1305"/><path fill="#fff" d="M100.302 21.086v-7.829h1.295v7.829a5.833 5.833 0 0 0 .237 1.9 1.543 1.543 0 0 0 .818.925 5.325 5.325 0 0 0 3.358 0 1.55 1.55 0 0 0 .82-.925 5.869 5.869 0 0 0 .237-1.9v-7.829h1.261v7.829q0 4.293-4 4.291-4.032 0-4.03-4.291" data-name="Path 1306"/><path fill="#fff" d="M115.159 13.257q3.6 0 3.6 3.406a3.014 3.014 0 0 1-2.9 3.342l3.326 5.209h-1.524l-3.178-5.127h-1.747v5.127h-1.3V13.257Zm1.4 5.586a1.3 1.3 0 0 0 .729-.721 3.931 3.931 0 0 0 .212-1.458 3.8 3.8 0 0 0-.212-1.433 1.268 1.268 0 0 0-.729-.7 4.111 4.111 0 0 0-1.467-.206h-2.391v4.734h2.375a4.052 4.052 0 0 0 1.483-.212" data-name="Path 1307"/><path fill="#fff" d="m122.742 22.314-.983 2.9h-1.371l4.291-11.958h1.229l4.292 11.958h-1.412l-.967-2.9Zm2.539-7.55-2.18 6.453h4.342Z" data-name="Path 1308"/><path fill="#fff" d="m133.374 13.257 6.126 9.4v-9.4h1.224v11.958h-1.048l-6.143-9.4v9.4h-1.229V13.257Z" data-name="Path 1309"/><path fill="#fff" d="M143.219 19.268a7.237 7.237 0 0 1 1.253-4.635 4.6 4.6 0 0 1 3.792-1.541 5.646 5.646 0 0 1 2.277.411l-.263 1.13a4.4 4.4 0 0 0-1.965-.411 4.868 4.868 0 0 0-2.31.442 2.472 2.472 0 0 0-1.139 1.514 10.907 10.907 0 0 0-.336 3.089 10.548 10.548 0 0 0 .336 3.038 2.438 2.438 0 0 0 1.13 1.49 4.878 4.878 0 0 0 2.3.435 4.489 4.489 0 0 0 2.229-.506l.245 1.178a6.065 6.065 0 0 1-2.521.475q-5.029 0-5.03-6.109" data-name="Path 1310"/><path fill="#fff" d="M160.01 25.215h-6.914V13.258h6.75v1.1h-5.455v4.227h4.98v1.1h-4.98v4.407h5.619Z" data-name="Path 1311"/></g></svg>